<svg xmlns="http://www.w3.org/2000/svg" xmlns:xlink="http://www.w3.org/1999/xlink" width="605" height="272" viewBox="0 0 605 272"><defs><clipPath id="a"><rect width="605" height="272" fill="#00500a"/></clipPath></defs><g opacity="0.1" clip-path="url(#a)"><g transform="matrix(-0.914, 0.407, -0.407, -0.914, 693.047, 80.204)"><g transform="translate(0 0)"><path d="M58.688,9.138c.265-1.219-.767-1.351-1.456-1.478a5.857,5.857,0,0,1-2.948-1.712c-.845-.778-1.809-1.428-2.775-2.176l-.484.718c-.115-.028-.212-.021-.245-.063-1.032-1.338-2.706-1.578-4.106-2.118A6.057,6.057,0,0,0,42.25,2.03a13.261,13.261,0,0,0-4.93,3.1,9.4,9.4,0,0,0-1.645,2.1c-.822,1.488-1.481,3.065-2.271,4.573-.893,1.7-.668,3.635-1.156,5.433-.345,1.27.123,2.744.1,4.125-.012.646-.444,1.279-.49,1.931-.1,1.486-.114,2.981-.1,4.471a10.249,10.249,0,0,0,.256,2.282c.094.391.621.686.694,1.073a11.651,11.651,0,0,1-.117,1.552,5.459,5.459,0,0,0,.467,1.984c-.613-1.117.267-.91.947-.99l-.654,1.466.328.117-.4,1.192c.836.007,1.885,1.542,1.737,2.3a1.38,1.38,0,0,0,.05.872A19.6,19.6,0,0,1,37,44.689a12.19,12.19,0,0,0,.871,1.923,4.311,4.311,0,0,0,.149,1.772c.662,1.264,1.566,2.4,2.31,3.624.363.6.554,1.3.885,1.919.475.892,1.008,1.752,1.511,2.628.182.317.34.647.524.962a40.275,40.275,0,0,0,2.128,3.565c1.644,2.24,3.3,4.487,5.131,6.571a81.784,81.784,0,0,0,11.516,11c2.682,2.06,5.221,4.307,7.889,6.389,1.119.873,2.425,1.5,3.605,2.3.7.471,1.287,1.1,1.973,1.584a8.973,8.973,0,0,0,1.958,1.145c1.616.609,1.808,1.363.951,2.825a10.175,10.175,0,0,1-2.963,3.131c-.166.12-.626.151-.68.061-.88-1.472-2.47-1.347-3.817-1.681q-6.263-1.553-12.56-2.975a53.693,53.693,0,0,1-8.664-3.3c-4.271-1.786-8.411-3.885-12.6-5.864-2.485-1.174-4.941-2.412-7.445-3.544a2.928,2.928,0,0,1-1.75-2.743,42.266,42.266,0,0,0-.685-4.189c-.488-2.454-.947-4.919-1.562-7.343-.623-2.457-1.414-4.872-2.147-7.3-.149-.493-.433-.95-.548-1.449a39.031,39.031,0,0,1-.785-3.974,4.926,4.926,0,0,0-1.464-3c.443-1.03-.986-4.456-2.387-5.523l.89-.445c-.72-.559-.5-1.756-1.689-2.128-.332-.1-.29-1.407-.428-2.207l-1.216-.168a12.873,12.873,0,0,0,.769-1.4c.025-.06-.4-.311-.562-.429a13.9,13.9,0,0,0-.685-2.641c-1.08-2.285-2.2-4.56-3.476-6.741-.776-1.329-2.092-2.372-2.72-3.746A10.182,10.182,0,0,0,7.9,21.385a4.5,4.5,0,0,0-.634-.594c-1.7-3.318-4.556-5.628-7.114-8.267-.024.384-.071.784-.071,1.184q-.006,9.383,0,18.767a3.365,3.365,0,0,0,1.041,2.542,6.658,6.658,0,0,1,.812,1.614,13.735,13.735,0,0,0,1.835,3.146c.54.559.162,1.168.594,1.652a7.971,7.971,0,0,1,1.22,1.9c.32.679.414,1.465.741,2.139.374.769,1.421,1.638,1.249,2.158-.394,1.191,1.224,1.572.741,2.718-.152.36.51,1.062.864,1.729a2.488,2.488,0,0,0,.016.913q1.144,3.321,2.378,6.611c.116.309.492.513.655.816a3.212,3.212,0,0,1,.119.781c.2.9.423,1.789.628,2.684.309,1.348.611,2.7.944,4.17-3.341-1.257-5.1-4.391-7.763-5.668l-6-6.242c-.032.566-.074.974-.074,1.382,0,4.434,0,8.869-.009,13.3,0,.865.4,1.692.035,2.606-.423,1.062.477,1.736,1.131,2.242Q6.657,79.864,12.2,83.9c1.45,1.055,3.1,1.841,4.531,2.917a2.17,2.17,0,0,1,.569,1.833c-.111.536-.381.809.125,1.354.482.519-.726,2.235-1.564,2.53a16.447,16.447,0,0,1-5.827.936,1.931,1.931,0,0,0-.814.336c-1.094-.052-2.088-.053-3.07-.159a26.422,26.422,0,0,1-2.711-.491c-.09-.019-.12-.311-.182-.475l.035,0a10.319,10.319,0,0,1-1.578-.126,9.677,9.677,0,0,1-1.464-.594,3.437,3.437,0,0,0-.156.656c-.009,3.483-.018,6.966,0,10.45,0,.945,1.034,1.515,2.154,1.173a1.307,1.307,0,0,1,1.046.114,10.453,10.453,0,0,0,2.562.456,23.652,23.652,0,0,0,2.533.313c1.679.054,3.361.017,5.042.043a7.343,7.343,0,0,1,1.195.259H17.29l-.443-.174c.1-.385,1.945-.4,2.241-.063.044.051.136.06.286.122.708-1.071,1.714-1.211,2.994-1.2.875,0,1.8-.785,2.621-1.347A11.242,11.242,0,0,0,29.32,96.9a8.29,8.29,0,0,0,.175-1.74c.117-1.113.659-1.391,1.709-.955a7.081,7.081,0,0,0,1.321.266,5.024,5.024,0,0,0,1.267.926c1.845.666,3.6,1.513,5.388,2.31,1.133.506,2.425.648,3.606,1.065.735.26,1.377.774,2.1,1.1,1.541.689,3.113,1.307,4.654,1.995a3.016,3.016,0,0,0,2.058.018c1.408-.313,2.757.348,4.07.869.715.284,1.435.557,2.267.88l-.594.992c1.782.259,3.336,1.359,5.324,1.154l.117.755.474-1.108c.378,1.292.664,1.346,2.1.325.3,1.181,1.252,1.129,2.181,1.2,2.363.173,4.733.309,7.083.6,4.031.492,7.721-.219,10.584-3.234A9.951,9.951,0,0,0,88.3,98.3c.149-1.831,1.317-2.458,2.8-1.484.713.47,1.547.512,2.262,1.275.841.9,2.416,1.106,3.741,1.641-.455,1.273.6,1.189,1.338,1.43.475.155.93.374,1.582.641l.146-.109c.735.4.577,1.689,1.852,1.308.063-.019.2.461.382.553,1.392.7,2.8,1.368,4.209,2.04.225.108.571.128.674.3a1.233,1.233,0,0,0,1.785.577c.166-.074.445.106.672.169l-.2.668c2.289.591,4.214,2.486,6.883,1.9a8.155,8.155,0,0,0,.255.968.51.51,0,0,0,.354.262c.077.01.162-.237.277-.281.405-.156.825-.275.968-.321.306.48.451,1,.71,1.068a49.4,49.4,0,0,0,6.738,1.265l-.42-.555,2.069.938-.069-.417c.264-.2.544-.583.787-.56a3.052,3.052,0,0,1,1.2.532c.172.1.349.517.371.505,2.089-1.119,4.518-.713,6.652-1.449,1.826-.63,3.676-1.446,4.775-3.259.579-.954,1.6-1.242,2.527-1.751a7.748,7.748,0,0,0,4.225-6.461c.153-1.788.584-3.553.889-5.328.037-.218.065-.437.128-.858a5.378,5.378,0,0,1,1.209.624c.87.791,2.068,1.093,2.795,2.178.334.5,1.189.741,1.438,1.488a.132.132,0,0,0,.1.065c.612.066,1.224.127,1.543.16l.859,1.679.323-.148-.6-1.181.191-.326a112.906,112.906,0,0,1,10.935,4.825c0,.019-.009-.175-.018-.368a2.916,2.916,0,0,0,.415.351,3.2,3.2,0,0,0,1.033.515c1.521.21,3.055.328,4.577.535a3.21,3.21,0,0,1,.936.481l1.191.478c-.087.608.258.865.748.647a2.743,2.743,0,0,1,2.537-.119.951.951,0,0,0,.527.033,31.979,31.979,0,0,1,5.872-.743c2.243.119,4.2-.816,6.314-1.083a4.881,4.881,0,0,0,1.948-.852,38.171,38.171,0,0,0,3.744-2.714,6.7,6.7,0,0,0,1.957-2.362c.488-1.213,1.43-2.072,1.7-3.295.162-.489.328-.976.484-1.467.5-1.565.81-1.537,2.3-.64,2.447,1.477,5.009,2.765,7.533,4.113.191.1.574.155.687.045.891-.864,1.534-.009,1.824.481.374.629.476.936,1.257.508.344-.188.951.1,1.474.183l-.628.356a6.037,6.037,0,0,1,.968.5c.425.336,1.316-.036,1.358.89,0,.066.219.2.284.174,1.034-.425,1.4.639,2.1.927,2.041.833,4.035,1.968,6.16,2.339,1.175.206,2.138.881,3.46,1.031v-1.7c0-3.006-.043-6.013.026-9.018a1.438,1.438,0,0,0-1.074-1.58,17.193,17.193,0,0,1-3.857-1.465c-1.307-.9-3.118-.837-4.087-2.272l-.68-.056a3.9,3.9,0,0,1-2.834-1.761h.892c-.954-1.264-2.743-1.93-3.354-1.561-.47-.187-.752-.282-1.018-.41a9.93,9.93,0,0,1-.916-.5,31.682,31.682,0,0,1-4.724-3c-1.885-1.7-4.274-2.788-5.8-4.876a2.268,2.268,0,0,1-.207-1.191,26.219,26.219,0,0,0-1.14-7.468,46.58,46.58,0,0,1-.941-4.6c-.211-.973-.5-1.929-.765-2.89-.3-1.094-.552-2.2-.912-3.276-.581-1.735-1.251-3.44-1.844-5.172-.295-.862-.418-1.789-.765-2.627-.543-1.31-1.206-2.571-1.825-3.85-.492-1.017-.96-2.049-1.5-3.04-.6-1.1-1.275-2.168-1.921-3.247-.746-1.247-1.521-2.477-2.235-3.742-.755-1.338-1.458-2.707-2.176-4.066-.5-.938-.971-1.885-1.471-2.82-.1-.186-.246-.453-.407-.482-.793-.141-.722-.793-.935-1.332-.35-.886-.414-2.1-1.971-2.031l.293-.676c-.231-.309-1.309-.264-.594-1.176.03-.038-.065-.227-.146-.29-1.54-1.2-1.876-3.208-3.105-4.6-.523-.594-.592-1.611-1.68-1.746-.257-.032-.439-.662-.777-.892a2.861,2.861,0,0,1-.553-.619c-.115-.241,0-.626-.15-.809a23.11,23.11,0,0,0-1.8-1.918c-.158-.152-.476-.13-.713-.209-.149-.05-.4-.13-.408-.212-.14-1.78-1.808-2.352-2.811-3.385a26.633,26.633,0,0,0-4.353-3.359A23.653,23.653,0,0,0,160.055.912a10.017,10.017,0,0,0-5.949-.7c-1.264.313-1.348,1.447-2.436,1.706l.859.418-.16.389L151.2,2.237a5.19,5.19,0,0,0-.955,1.031A7.327,7.327,0,0,0,149.4,5.43c-.274,1.646-1.4,2.04-2.792,2.173a1.063,1.063,0,0,0-.544.244c-.571.479-1.317.881-1.64,1.5-.794,1.516-1.935,2.838-2.145,4.709-.089.793.162,2.089-1.036,2.612-.1.044-.163.38-.114.542a3.33,3.33,0,0,1-.353,2.669l1.559.73-.065.259-1.1.115c.536.466,1.13.739,1.289,1.171a14.834,14.834,0,0,1,.53,2.65c.208,1.23.409,2.462.59,3.7.077.521.095,1.05.152,1.72l-1.059.619,1.939,2.319-1.045.373c.317.327.541.771.831.82a2.323,2.323,0,0,1,2.219,1.75,31.79,31.79,0,0,0,2.257,3.809c.081.128.444.077.344.063a10.2,10.2,0,0,0,.576,1.375c.714,1.146,1.468,2.267,2.208,3.4.1.151.194.307.306.447.227.283.465.556.7.834l-.216.276.815.147-.249,1.5c-1-.063-1.5-.568-1.567-1.353-.078-.863-.581-1.039-1.282-1.06l.026-.029a9.868,9.868,0,0,0,2.088,3.135c.5.492.459,1.489,1.211,1.941.021.013-.064.2-.1.312,1.5.408,1.341,2.117,2.338,2.964a29,29,0,0,1,2.821,2.943c.893,1.008,1.674,2.116,2.593,3.1,1.6,1.715,3.229,3.416,4.938,5.024a23.968,23.968,0,0,0,2.869,2.008c-.319,1.044.94,1.275,1.519,1.877a46.586,46.586,0,0,0,3.6,3.158c1.5,1.27,3.011,2.536,4.544,3.77a2.257,2.257,0,0,0,.857.244,21.15,21.15,0,0,0,1.486,1.627,10.272,10.272,0,0,0,1.733,1.244,10.839,10.839,0,0,0,1.681.594c.742.728,1.786,1.765,2.846,2.787.552.532.963,1,.549,1.9a7.206,7.206,0,0,0-.2,1.938c-.118.841-.26,1.682-.453,2.509-.2.862-.473,1.707-.631,2.268a6.079,6.079,0,0,0-1.834.448c-.844.566-1.541,1.346-2.365,1.948-.25.183-.714.085-1.081.1-.684.023-1.37.022-2.054.051a52.1,52.1,0,0,1-5.644.216,20.474,20.474,0,0,1-5.654-1.04c-1.152-.423-2.491-.266-3.525-1.208-.525-.478-1.467-.473-2.181-.777a30.285,30.285,0,0,1-2.971-1.436c-1.437-.808-2.843-1.672-4.24-2.549a9.159,9.159,0,0,0-2.058-1.216c-.645-.211-1.072-1.09-1.491-1.555l.074.4-.252.1-.373-1a10.634,10.634,0,0,1-2.413-1.186,7.672,7.672,0,0,1-2.771-3.916c-.858-3.261-1.969-6.457-3.035-9.66-.8-2.39-1.683-4.75-2.537-7.121-.391-1.084-.849-2.146-1.185-3.247-.233-.765-.6-1.023-1.378-.592.943-2.585-.8-4.35-1.659-6.352q.146.478.291.956l-.155.295c-.333-.185-.967-.421-.946-.546.083-.492-.994-1.136.092-1.548l.45,1.594.279-.75c-.142-.487-.255-.985-.434-1.458a10.907,10.907,0,0,0-.9-2.053c-.264-.411-.457-1.056-1.257-.94-.264.038-.594-.38-.894-.59l.128-.306,1.591.439c-1-1.657-2.24-2.993-2.63-4.543a20.378,20.378,0,0,0-2.263-4.577c-.776-1.467-1.255-3.208-2.95-4.174.419-.736.082-1.263-.646-1.779-.329-.234-.363-.855-.59-1.268-.543-.989-1.077-1.988-1.705-2.923-.28-.417-.518-1.155-1.347-.741-.093.046-.336-.209-.13-.391.03-.333.216-.788.066-.982-2.756-3.557-5.519-7.109-8.361-10.6a31.547,31.547,0,0,0-2.73-2.539,33.3,33.3,0,0,0-3.908-3.767c-1.529-1.048-3.059-2.369-5.216-2.122a1.586,1.586,0,0,1-1.844-.819c-.185-.373-1.1-.385-1.826-.6l-.464.346-4.388-1.2-.251.377,1.145,1.529a16.039,16.039,0,0,1-2.491,1.046c-.888.221-1.266.912-.694,1.949l-1.307-.585.562,1.4-.863.5-.108-1.04-.782,1.436a5.965,5.965,0,0,1,.818.475.622.622,0,0,1,.18.461.406.406,0,0,1-.321.236c-1.891-.387-.957,1.359-1.439,2.018-.334.456,0,1.349-.162,2-.246.962-.094,1.6.668,1.743-.194.382-.536.739-.5,1.059.074.73.37,1.434.5,2.162.184,1,.206,2.039.467,3.015.754,2.819,1.587,5.617,2.4,8.419.323,1.109.682,2.208,1.075,3.471l.709-.654c-.131,2.442,1.691,3.941,2.641,5.817,1,1.979,2.3,3.807,3.443,5.716.888,1.485,1.682,3.028,2.612,4.486q3.577,5.6,7.25,11.146a15.877,15.877,0,0,0,1.8,2.146c.706.739,1.852,1.282,2.15,2.139.668,1.921,2.589,2.806,3.356,4.584.169.393.622.665.948.989.58.577,1.168,1.145,1.743,1.726,1.25,1.264,2.47,2.56,3.747,3.8,1.346,1.3,2.7,2.6,4.131,3.814a51.113,51.113,0,0,0,5.1,4c1.711,1.111,2.419,2.769,3.178,4.476.322.723.715,1.416,1.111,2.192a17.14,17.14,0,0,1-6.049,2.422c-.193.037-.334.34-.359.367-1.628-.036-3.46-.531-4.9.01-1.681.629-2.847-.417-4.267-.481a33.7,33.7,0,0,1-7.043-1.241c-2.525-.67-4.984-1.606-7.448-2.49-1.506-.54-2.958-1.232-4.458-1.789a2.7,2.7,0,0,0-1.049-.021,4.162,4.162,0,0,0-.8-.7c-2.493-1.14-5-2.255-7.5-3.372-.659-.294-1.048-.653-.573-1.425a1.013,1.013,0,0,0-.166-1.407,1.255,1.255,0,0,1-.3-.679c-.358-2.065-.806-4.123-1-6.2-.113-1.214-1.2-2.363-.312-3.655-.754-.47.445-1.757-.848-2.038-.1-.022-.232-.522-.146-.7.517-1.088-.153-1.677-.773-2.275V64.343l-.843-.455c.2-.447.6-.909.507-1.213-.132-.416-.641-.713-.989-1.062l-.332.137.372-1.569a14.162,14.162,0,0,1-1.247-.844c-.09-.072.028-.4.05-.617l.716.2.212-.163-1.93-2.348.876-.249-.549-1.446-.791.736a4.32,4.32,0,0,1-.237-.681c.7-.374.5-.854.457-1.519-.052-.8-.174-1.256-.961-1.543l.633-.16L83.1,49.334a14.255,14.255,0,0,0-.334-2.935,71.132,71.132,0,0,0-2.584-7.165c-1.328-3.039-2.833-6-4.345-8.958-.63-1.23-1.508-2.331-2.212-3.526-.51-.865-1.519-.744-2.2-1.25l.035-.042.213.625-.269.243a6.068,6.068,0,0,1-.667-.694,25.523,25.523,0,0,0-1.969-2.81,1.128,1.128,0,0,1-.26-1.561l-1.623-.387,1.61-.654c.148.952,1.2,1.363,1.286,2.386.022.265.46.5.707.742l.264-.263a17.081,17.081,0,0,1-1.169-1.848c-.815-1.724-1.415-3.482-2.969-4.851a49.8,49.8,0,0,1-4.4-5.042c-.415-.48-.883-.862-1.188-.209l2,1.928-.35.389-2.73-1.966.449-.158-1.427-.816h1.838c-.178-.684-.371-1.427-1.541-1.058-.154.049-.411-.226-.621-.352-.056.378-.111.758-.183,1.264L56.8,8.928l.79-.88.124,1.089Zm6.6,7.506,1.294,1.094-1.069.892c-.348-.4-.725-.818-1.055-1.266-.036-.049.2-.3.311-.456-.149-.193-.26-.481-.455-.559a5.176,5.176,0,0,0-1.095-.2l.032-.276.8-.085-.192-1.456C64.792,15.08,65.459,15.61,65.286,16.644Zm59.851,45.19c.912.368.939.8.033,1.689l-.227-.668c-.886.688-1.282.437-1.738-.918l1.388-.144.379-.677-2.725.313.333-1.062-.278.1-.46-1-.667.172-1.264-1.4.493-.583-.744-1.052-2.269-1.854,1.9-.292-2.509-1.406.662-1.557c.4,1.729,2.665,1.864,2.226,3.8-.013.059.276.216.443.282.379.15.769.272,1.22.428l-1.085.935,1.277-.246c.564.879,1.3,1.743.284,2.8.741.1,1.7-.078,1.554,1.161C124.679,59.878,125.119,60.151,125.138,61.834ZM71.419,82.747l1.688.64L73,83.681h-.491c1.588-.2,1.975.875,2.351,2.063-1.673-.237-2.7-1.407-3.874-2.322l-2.141-1.609c-3.257-1.9-5.907-4.741-8.976-7.648a3.883,3.883,0,0,1,1.155.235c.565.389,1.076.858,1.607,1.3,1.81,1.491,3.614,2.99,5.434,4.47.48.39.5,1.292,1.622,1.04C70.125,81.106,70.833,82.2,71.419,82.747ZM54.8,53.021l.427,1.419-.207.144-1.806-1.679.258-.333,1.363.484c-.682-1.249-1.373-2.493-2.045-3.747-1.083-2.023-2.192-4.033-3.219-6.084-.892-1.782-1.71-3.6-2.518-5.425a39.85,39.85,0,0,1-2.163-5.211,28.355,28.355,0,0,1-1.513-9.436c.02-.324-.284-.7-.2-.983.414-1.358.857-2.713,1.4-4.023.227-.549.652-1.295,1.121-1.41a4.028,4.028,0,0,1,3.392,1.1,20.033,20.033,0,0,1,2.629,2.527c1.146,1.292,2.2,2.664,3.289,4.007.119.148.164.461.286.486,1.373.279,1.354,1.9,2.433,2.5.351.2.339.968.593,1.421.948,1.688,1.932,3.356,2.915,5.024.286.484.615.942.835,1.275.348-.175.67-.4.716-.35a11.029,11.029,0,0,1,.839,1.063l-1.234.57a8.418,8.418,0,0,1,.976.566,1.936,1.936,0,0,1,.611.678,12.212,12.212,0,0,1,.419,1.558l.889-.577.358.867c-.586-.032-1.065-.213-.768.749.21.68.663.678,1.078.894a2.551,2.551,0,0,0,.493.144c-.186.08-.377.151-.555.246-.1.052-.173.146-.131.109.547.553,1.29,1.007,1.566,1.659.347.819.185,1.842.467,2.7.776,2.361,1.663,4.685,2.528,7.016.1.278.41.483.509.761.291.815.483,1.667.791,2.474.373.975.924,1.889,1.222,2.882.576,1.918.94,3.9,1.555,5.806.81,2.51,1.792,4.964,2.667,7.454a21.84,21.84,0,0,1,.745,2.672c.054.254-.177.568-.25.778L75.2,74.624l.138-.121L71.792,71.75c.2-1.3-.949-.41-1.4-.424.086-.478.375-1.135.2-1.292a26.785,26.785,0,0,0-2.519-1.877c-.089-.21-.131-.61-.337-.73a9.233,9.233,0,0,0-1.508-.584q.034.422.068.844c-.845-.841-2.347-1.022-2.245-2.524-.629-.376-1.286-.714-1.872-1.147-.234-.172-.274-.771-.468-.806-1.164-.209-1.363-1.474-2.324-2-.743-.41-1.01-1.685-1.638-2.854l1.589.57c-.83-1.242-1.6-2.5-2.476-3.665A28.264,28.264,0,0,0,54.8,53.021Zm116.909-19.9-.941.091a2.488,2.488,0,0,0,.176.775,12.908,12.908,0,0,0,1.393,2.028,10.541,10.541,0,0,0,1.674,1.238c-.6,1.012,1.156,4.283,2.717,4.916-.05.257-.2.535-.122.7.556,1.18,1.166,2.334,1.747,3.5a19.4,19.4,0,0,1,1.568,3.328c.262.953.821,2.422,1.613,2.9.084.05.133.159.243.3l-.618.234c.452,1.574.847,3.1,1.335,4.6a25.545,25.545,0,0,0,1.088,2.44,4.417,4.417,0,0,1-1.3-.526c-1.268-1.047-2.474-2.17-3.7-3.269-.8-.717-1.638-1.395-2.374-2.172-2.8-2.957-5.55-5.961-8.354-8.913a18.622,18.622,0,0,0-1.868-1.466c-.642-.521-.655-1.39-1.028-2a29.33,29.33,0,0,0-2.426-2.671C161.3,37.6,160.144,36,159.005,34.379a5.89,5.89,0,0,1-.531-1.4l-1.145-1.537c-.222-.357-.638-.636-.782-1.017a27.762,27.762,0,0,1-1.44-4.387,23.272,23.272,0,0,1-.225-4.293c-.008-1.463,1.036-2.514,1.664-3.717.1-.2.784-.279,1.08-.148a6.231,6.231,0,0,1,1.183.96,17.308,17.308,0,0,1,1.961,1.56c.684.736,1.178,1.645,1.83,2.416,1.038,1.228,2.161,2.385,3.205,3.608.937,1.1,1.857,1.144,2.791.048l.682,1.117-1.662.769,1.192.452-.319.167c.326.724.469,1.807,1.022,2.09.856.438,1.006.756.533,1.592a3.711,3.711,0,0,0,.73-.887c.173-.264.351-.524.527-.785l.529.082C170.588,31.833,171.54,32.415,171.711,33.118Zm-58.005-5.165c-.056.4-.259.832-.124,1.061.808,1.364,1.673,2.7,2.563,4.009.425.627,1.348,1.189,1.348,1.78,0,1.626,1.1,2.563,1.831,3.741q.207.333.392.679c.6,1.12,1.192,2.242,1.727,3.249a5.193,5.193,0,0,0,.265,1.315c.679,1.356,1.425,2.679,2.18,4.079,1.246-.29,1.121.914,1.509,1.807l-.982-.592-.184.226,1.061.937-.246.092,2.215,4.986,1.152.175-.812.6,1.182.578-.335,1.063.757-.22c0,.462.02.817-.006,1.167a4.054,4.054,0,0,0-.131,1.144,32.111,32.111,0,0,0,.978,3.233,4,4,0,0,0,.74.963.921.921,0,0,1-1.027-.065c-.639-.732-1.265-1.825-1.9-2.143-1.213-.6-.966-2.1-2.173-2.6-.54-.222-.823-1.07-1.22-1.635a11.448,11.448,0,0,1-1.005-1.476,4.116,4.116,0,0,0-1.876-2.2c-.126-.058-.291-.25-.278-.361.174-1.427-1.072-2.139-1.665-3.142-1.049-1.775-2.5-3.309-3.613-5.052-1.093-1.71-1.954-3.566-2.956-5.335-.827-1.458-1.715-2.881-2.571-4.322-.724-1.219-1.426-2.451-2.166-3.66-.538-.878-1.169-1.7-1.671-2.6-.468-.835-1.263-1.365-1.672-2.31-.979-2.263-2.314-4.371-3.334-6.619a9.335,9.335,0,0,1-1.164-5.276,6.314,6.314,0,0,1,4.873,2.364c.516.69.909.888,1.327.807.428.72.761,1.322,1.136,1.9a13.944,13.944,0,0,0,.922,1.212c.524.635.442,1.871,1.761,1.679C110.029,24.309,112.42,27.458,113.706,27.953Zm72.511,64.464c.172.139.362.214.394.331.344,1.251-1.506,3.7-2.793,3.741-1.042.03-2.088.162-3.125.109q-4.429-.223-8.849-.588c-.434-.036-.837-.442-1.25-.673,2.669,0,5.222.049,7.773-.022a19.382,19.382,0,0,0,3.49-.489c.5-.107.912-.669,1.4-.738A4.511,4.511,0,0,0,186.217,92.417ZM79.615,88.3c-1.726.369-3.813-1.16-4.261-3.2.839.567,1.492,1.374,2.148,1.377C78.916,86.483,78.547,88.019,79.615,88.3Zm43.96,10.018.144.946-.186.045-.877-1.78a10.861,10.861,0,0,1,2.885-.376c.3.037.471,1.182.668,1.73l-2.125.632c.033-.638,1.126-.918.658-1.854Zm54.041,1-.141.366c-2.825-.78-5.888-.655-8.686-2.321ZM13.384,95.119l.451,1.2h-1.9L12,97.1c-1.407-.09-.712-1.064-.884-1.619ZM50.8,49.676c1.01-.654,1.01-.654,2.189,1.766C51.556,51.7,51.418,50.389,50.8,49.676ZM158.493,4.567c-.651-.171-1.225-.309-1.791-.477a4.465,4.465,0,0,1-.628-.293c.214-.2.5-.611.632-.567C157.394,3.45,158.406,3.266,158.493,4.567ZM112.379,45.088c1.7.8,2.414,1.97,1.788,2.713ZM67.37,76.681l-2.443-2.107C67.613,76.107,67.613,76.107,67.37,76.681Zm72.162-13.917a8.059,8.059,0,0,1,1.357,1.17c.156.216.025.661-.035.991-.01.056-.453.114-.468.077C140.1,64.309,139.843,63.6,139.532,62.764Zm-30.375,33q.005.143.011.285l-1.18-1.109,3.336.255q-.006.149-.011.3ZM76.354,105.8c.113-.22.284-.722.376-.708.8.121,1.582.335,2.37.521l-.087.322ZM74.3,81.358l-.2.282L70.95,79.432l.233-.334Zm99.876-45.222-.261.323-2.071-1.836C173.6,34.092,173.219,35.921,174.174,36.136ZM9.48,96.409c-.43-1.467.693-.875,1.344-.948v1.124ZM216.35,37.374c1.78,1.055,2.08,3.148,3.15,4.628a.935.935,0,0,0,.25.786c.611.522,1.571.814,1.117,1.941,1.254.6,2.974,3.362,2.764,3.891.615.479,1.151.9,1.688,1.313.965.748,1.207,2.022,2.145,2.837.756.657,1.079,1.952,1.9,2.367,1.466.745.994,1.9,1.006,2.92.052,4.316.022,8.632.022,12.948v3.211a14.739,14.739,0,0,1-2-1.332c-1.463-1.362-2.863-2.792-4.261-4.222-.131-.134-.069-.457-.1-.692.232-.016.465-.049.7-.041.249.008.5.054.7.078-.164-.437-.224-.823-.331-.836-.249-.031-.517.139-.785.186-.452.079-1.056.335-1.334.141a8.617,8.617,0,0,1-1.591-1.667c-1.171-1.423-2.339-2.85-3.457-4.314-.589-.771-1.07-1.624-1.748-2.666l-.989-.984.645-.89h-1.026l-.585-1.46c-.688.555-.563-.044-.663-.432a4.5,4.5,0,0,0-.56-.922l1.778.241c-.526-1.923-2.032-2.485-3.857-2.59l.562-1.327c-1.064.363-1.043.358-1.272-.585a2.106,2.106,0,0,0-.454-.8,17.738,17.738,0,0,1-1.587-1.834c-1.062-1.713-2.06-3.467-3.023-5.238q-1.4-2.583-2.67-5.238c-.314-.654-.378-1.426-.679-2.089-.613-1.348-1.36-2.636-1.95-3.993a7.339,7.339,0,0,1-.5-2.168,16.98,16.98,0,0,1,.124-1.788,4.754,4.754,0,0,0-.193-1.111c-.08-.336-.2-.662-.339-1.126l.4-.835c-.406-.521-.939-.894-.957-1.29a20.779,20.779,0,0,1,.274-2.69,15.051,15.051,0,0,0,.033-1.875c-.041-1.047-.413-2.179-.13-3.12a10.457,10.457,0,0,1,3.9-5.6,3.864,3.864,0,0,0,1.556-2.1,7.632,7.632,0,0,1,6.5-5.67,12.8,12.8,0,0,1,3.931.249A23.393,23.393,0,0,1,224.6,6.55a33.324,33.324,0,0,1,4.186,4.124,4.825,4.825,0,0,1,1.669,3.591c-.154,5.9-.061,11.8-.061,17.7V33.7c-2.311-3.1-4.027-6.253-6.53-8.826-2.041-2.1-4.006-4.272-6.085-6.331a13.685,13.685,0,0,0-2.76-2.008c-.634-.37-1.515-.937-2.142-.175a9.35,9.35,0,0,0-2.006,3.249c-1.088,4.1.417,7.761,2.269,11.327a9.443,9.443,0,0,1,.493,1.924C214.788,33.235,216.786,36.361,216.35,37.374Zm2.675,48.519a64.155,64.155,0,0,1,6.384,2.623c.243.113.363.49.713.992L221.4,87.784l-.68-.056ZM.264,90.627a20.96,20.96,0,0,1,5.5,2.58l-2.509-.532.035,0C1.473,92.159.172,91.292.264,90.627ZM71,22.879c.36.275.732.416.826.663a4.751,4.751,0,0,1,.134,1.261c-.768-.217-.464.384-.534.7l.035-.042c.007-.855-1.1-1.2-.972-2.11l.264-.263Zm77.035,17.9,1.523,1.429-.1.308c-.466-.094-1.073-.043-1.359-.322s-.255-.888-.362-1.352Zm24.833,64.4-.038-.333,1.756-.468,1.191.478ZM146.377,36.96c-.485-.165-1.165-.2-1.391-.536-.174-.26.222-.9.389-1.455.736.834.806,1.041.5,1.275l.618.467ZM230.227,91.3c-.929.019-1.6-.376-2.051-1.66l2.289,1.2ZM150.536,45.5a4.827,4.827,0,0,1-1.5-2.42c1.025.542,1.325,1.041,1.476,2.452Z" fill="#00500a"/></g><g transform="translate(460.929 0)"><path d="M58.688,9.138c.265-1.219-.767-1.351-1.456-1.478a5.857,5.857,0,0,1-2.948-1.712c-.845-.778-1.809-1.428-2.775-2.176l-.484.718c-.115-.028-.212-.021-.245-.063-1.032-1.338-2.706-1.578-4.106-2.118A6.057,6.057,0,0,0,42.25,2.03a13.261,13.261,0,0,0-4.93,3.1,9.4,9.4,0,0,0-1.645,2.1c-.822,1.488-1.481,3.065-2.271,4.573-.893,1.7-.668,3.635-1.156,5.433-.345,1.27.123,2.744.1,4.125-.012.646-.444,1.279-.49,1.931-.1,1.486-.114,2.981-.1,4.471a10.249,10.249,0,0,0,.256,2.282c.094.391.621.686.694,1.073a11.651,11.651,0,0,1-.117,1.552,5.459,5.459,0,0,0,.467,1.984c-.613-1.117.267-.91.947-.99l-.654,1.466.328.117-.4,1.192c.836.007,1.885,1.542,1.737,2.3a1.38,1.38,0,0,0,.05.872A19.6,19.6,0,0,1,37,44.689a12.19,12.19,0,0,0,.871,1.923,4.311,4.311,0,0,0,.149,1.772c.662,1.264,1.566,2.4,2.31,3.624.363.6.554,1.3.885,1.919.475.892,1.008,1.752,1.511,2.628.182.317.34.647.524.962a40.275,40.275,0,0,0,2.128,3.565c1.644,2.24,3.3,4.487,5.131,6.571a81.784,81.784,0,0,0,11.516,11c2.682,2.06,5.221,4.307,7.889,6.389,1.119.873,2.425,1.5,3.605,2.3.7.471,1.287,1.1,1.973,1.584a8.973,8.973,0,0,0,1.958,1.145c1.616.609,1.808,1.363.951,2.825a10.175,10.175,0,0,1-2.963,3.131c-.166.12-.626.151-.68.061-.88-1.472-2.47-1.347-3.817-1.681q-6.263-1.553-12.56-2.975a53.693,53.693,0,0,1-8.664-3.3c-4.271-1.786-8.411-3.885-12.6-5.864-2.485-1.174-4.941-2.412-7.445-3.544a2.928,2.928,0,0,1-1.75-2.743,42.266,42.266,0,0,0-.685-4.189c-.488-2.454-.947-4.919-1.562-7.343-.623-2.457-1.414-4.872-2.147-7.3-.149-.493-.433-.95-.548-1.449a39.031,39.031,0,0,1-.785-3.974,4.926,4.926,0,0,0-1.464-3c.443-1.03-.986-4.456-2.387-5.523l.89-.445c-.72-.559-.5-1.756-1.689-2.128-.332-.1-.29-1.407-.428-2.207l-1.216-.168a12.873,12.873,0,0,0,.769-1.4c.025-.06-.4-.311-.562-.429a13.9,13.9,0,0,0-.685-2.641c-1.08-2.285-2.2-4.56-3.476-6.741-.776-1.329-2.092-2.372-2.72-3.746A10.182,10.182,0,0,0,7.9,21.385a4.5,4.5,0,0,0-.634-.594c-1.7-3.318-4.556-5.628-7.114-8.267-.024.384-.071.784-.071,1.184q-.006,9.383,0,18.767a3.365,3.365,0,0,0,1.041,2.542,6.658,6.658,0,0,1,.812,1.614,13.735,13.735,0,0,0,1.835,3.146c.54.559.162,1.168.594,1.652a7.971,7.971,0,0,1,1.22,1.9c.32.679.414,1.465.741,2.139.374.769,1.421,1.638,1.249,2.158-.394,1.191,1.224,1.572.741,2.718-.152.36.51,1.062.864,1.729a2.488,2.488,0,0,0,.016.913q1.144,3.321,2.378,6.611c.116.309.492.513.655.816a3.212,3.212,0,0,1,.119.781c.2.9.423,1.789.628,2.684.309,1.348.611,2.7.944,4.17-3.341-1.257-5.1-4.391-7.763-5.668l-6-6.242c-.032.566-.074.974-.074,1.382,0,4.434,0,8.869-.009,13.3,0,.865.4,1.692.035,2.606-.423,1.062.477,1.736,1.131,2.242Q6.657,79.864,12.2,83.9c1.45,1.055,3.1,1.841,4.531,2.917a2.17,2.17,0,0,1,.569,1.833c-.111.536-.381.809.125,1.354.482.519-.726,2.235-1.564,2.53a16.447,16.447,0,0,1-5.827.936,1.931,1.931,0,0,0-.814.336c-1.094-.052-2.088-.053-3.07-.159a26.422,26.422,0,0,1-2.711-.491c-.09-.019-.12-.311-.182-.475l.035,0a10.319,10.319,0,0,1-1.578-.126,9.677,9.677,0,0,1-1.464-.594,3.437,3.437,0,0,0-.156.656c-.009,3.483-.018,6.966,0,10.45,0,.945,1.034,1.515,2.154,1.173a1.307,1.307,0,0,1,1.046.114,10.453,10.453,0,0,0,2.562.456,23.652,23.652,0,0,0,2.533.313c1.679.054,3.361.017,5.042.043a7.343,7.343,0,0,1,1.195.259H17.29l-.443-.174c.1-.385,1.945-.4,2.241-.063.044.051.136.06.286.122.708-1.071,1.714-1.211,2.994-1.2.875,0,1.8-.785,2.621-1.347A11.242,11.242,0,0,0,29.32,96.9a8.29,8.29,0,0,0,.175-1.74c.117-1.113.659-1.391,1.709-.955a7.081,7.081,0,0,0,1.321.266,5.024,5.024,0,0,0,1.267.926c1.845.666,3.6,1.513,5.388,2.31,1.133.506,2.425.648,3.606,1.065.735.26,1.377.774,2.1,1.1,1.541.689,3.113,1.307,4.654,1.995a3.016,3.016,0,0,0,2.058.018c1.408-.313,2.757.348,4.07.869.715.284,1.435.557,2.267.88l-.594.992c1.782.259,3.336,1.359,5.324,1.154l.117.755.474-1.108c.378,1.292.664,1.346,2.1.325.3,1.181,1.252,1.129,2.181,1.2,2.363.173,4.733.309,7.083.6,4.031.492,7.721-.219,10.584-3.234A9.951,9.951,0,0,0,88.3,98.3c.149-1.831,1.317-2.458,2.8-1.484.713.47,1.547.512,2.262,1.275.841.9,2.416,1.106,3.741,1.641-.455,1.273.6,1.189,1.338,1.43.475.155.93.374,1.582.641l.146-.109c.735.4.577,1.689,1.852,1.308.063-.019.2.461.382.553,1.392.7,2.8,1.368,4.209,2.04.225.108.571.128.674.3a1.233,1.233,0,0,0,1.785.577c.166-.074.445.106.672.169l-.2.668c2.289.591,4.214,2.486,6.883,1.9a8.155,8.155,0,0,0,.255.968.51.51,0,0,0,.354.262c.077.01.162-.237.277-.281.405-.156.825-.275.968-.321.306.48.451,1,.71,1.068a49.4,49.4,0,0,0,6.738,1.265l-.42-.555,2.069.938-.069-.417c.264-.2.544-.583.787-.56a3.052,3.052,0,0,1,1.2.532c.172.1.349.517.371.505,2.089-1.119,4.518-.713,6.652-1.449,1.826-.63,3.676-1.446,4.775-3.259.579-.954,1.6-1.242,2.527-1.751a7.748,7.748,0,0,0,4.225-6.461c.153-1.788.584-3.553.889-5.328.037-.218.065-.437.128-.858a5.378,5.378,0,0,1,1.209.624c.87.791,2.068,1.093,2.795,2.178.334.5,1.189.741,1.438,1.488a.132.132,0,0,0,.1.065c.612.066,1.224.127,1.543.16l.859,1.679.323-.148-.6-1.181.191-.326a112.906,112.906,0,0,1,10.935,4.825c0,.019-.009-.175-.018-.368a2.916,2.916,0,0,0,.415.351,3.2,3.2,0,0,0,1.033.515c1.521.21,3.055.328,4.577.535a3.21,3.21,0,0,1,.936.481l1.191.478c-.087.608.258.865.748.647a2.743,2.743,0,0,1,2.537-.119.951.951,0,0,0,.527.033,31.979,31.979,0,0,1,5.872-.743c2.243.119,4.2-.816,6.314-1.083a4.881,4.881,0,0,0,1.948-.852,38.171,38.171,0,0,0,3.744-2.714,6.7,6.7,0,0,0,1.957-2.362c.488-1.213,1.43-2.072,1.7-3.295.162-.489.328-.976.484-1.467.5-1.565.81-1.537,2.3-.64,2.447,1.477,5.009,2.765,7.533,4.113.191.1.574.155.687.045.891-.864,1.534-.009,1.824.481.374.629.476.936,1.257.508.344-.188.951.1,1.474.183l-.628.356a6.037,6.037,0,0,1,.968.5c.425.336,1.316-.036,1.358.89,0,.066.219.2.284.174,1.034-.425,1.4.639,2.1.927,2.041.833,4.035,1.968,6.16,2.339,1.175.206,2.138.881,3.46,1.031v-1.7c0-3.006-.043-6.013.026-9.018a1.438,1.438,0,0,0-1.074-1.58,17.193,17.193,0,0,1-3.857-1.465c-1.307-.9-3.118-.837-4.087-2.272l-.68-.056a3.9,3.9,0,0,1-2.834-1.761h.892c-.954-1.264-2.743-1.93-3.354-1.561-.47-.187-.752-.282-1.018-.41a9.93,9.93,0,0,1-.916-.5,31.682,31.682,0,0,1-4.724-3c-1.885-1.7-4.274-2.788-5.8-4.876a2.268,2.268,0,0,1-.207-1.191,26.219,26.219,0,0,0-1.14-7.468,46.58,46.58,0,0,1-.941-4.6c-.211-.973-.5-1.929-.765-2.89-.3-1.094-.552-2.2-.912-3.276-.581-1.735-1.251-3.44-1.844-5.172-.295-.862-.418-1.789-.765-2.627-.543-1.31-1.206-2.571-1.825-3.85-.492-1.017-.96-2.049-1.5-3.04-.6-1.1-1.275-2.168-1.921-3.247-.746-1.247-1.521-2.477-2.235-3.742-.755-1.338-1.458-2.707-2.176-4.066-.5-.938-.971-1.885-1.471-2.82-.1-.186-.246-.453-.407-.482-.793-.141-.722-.793-.935-1.332-.35-.886-.414-2.1-1.971-2.031l.293-.676c-.231-.309-1.309-.264-.594-1.176.03-.038-.065-.227-.146-.29-1.54-1.2-1.876-3.208-3.105-4.6-.523-.594-.592-1.611-1.68-1.746-.257-.032-.439-.662-.777-.892a2.861,2.861,0,0,1-.553-.619c-.115-.241,0-.626-.15-.809a23.11,23.11,0,0,0-1.8-1.918c-.158-.152-.476-.13-.713-.209-.149-.05-.4-.13-.408-.212-.14-1.78-1.808-2.352-2.811-3.385a26.633,26.633,0,0,0-4.353-3.359A23.653,23.653,0,0,0,160.055.912a10.017,10.017,0,0,0-5.949-.7c-1.264.313-1.348,1.447-2.436,1.706l.859.418-.16.389L151.2,2.237a5.19,5.19,0,0,0-.955,1.031A7.327,7.327,0,0,0,149.4,5.43c-.274,1.646-1.4,2.04-2.792,2.173a1.063,1.063,0,0,0-.544.244c-.571.479-1.317.881-1.64,1.5-.794,1.516-1.935,2.838-2.145,4.709-.089.793.162,2.089-1.036,2.612-.1.044-.163.38-.114.542a3.33,3.33,0,0,1-.353,2.669l1.559.73-.065.259-1.1.115c.536.466,1.13.739,1.289,1.171a14.834,14.834,0,0,1,.53,2.65c.208,1.23.409,2.462.59,3.7.077.521.095,1.05.152,1.72l-1.059.619,1.939,2.319-1.045.373c.317.327.541.771.831.82a2.323,2.323,0,0,1,2.219,1.75,31.79,31.79,0,0,0,2.257,3.809c.081.128.444.077.344.063a10.2,10.2,0,0,0,.576,1.375c.714,1.146,1.468,2.267,2.208,3.4.1.151.194.307.306.447.227.283.465.556.7.834l-.216.276.815.147-.249,1.5c-1-.063-1.5-.568-1.567-1.353-.078-.863-.581-1.039-1.282-1.06l.026-.029a9.868,9.868,0,0,0,2.088,3.135c.5.492.459,1.489,1.211,1.941.021.013-.064.2-.1.312,1.5.408,1.341,2.117,2.338,2.964a29,29,0,0,1,2.821,2.943c.893,1.008,1.674,2.116,2.593,3.1,1.6,1.715,3.229,3.416,4.938,5.024a23.968,23.968,0,0,0,2.869,2.008c-.319,1.044.94,1.275,1.519,1.877a46.586,46.586,0,0,0,3.6,3.158c1.5,1.27,3.011,2.536,4.544,3.77a2.257,2.257,0,0,0,.857.244,21.15,21.15,0,0,0,1.486,1.627,10.272,10.272,0,0,0,1.733,1.244,10.839,10.839,0,0,0,1.681.594c.742.728,1.786,1.765,2.846,2.787.552.532.963,1,.549,1.9a7.206,7.206,0,0,0-.2,1.938c-.118.841-.26,1.682-.453,2.509-.2.862-.473,1.707-.631,2.268a6.079,6.079,0,0,0-1.834.448c-.844.566-1.541,1.346-2.365,1.948-.25.183-.714.085-1.081.1-.684.023-1.37.022-2.054.051a52.1,52.1,0,0,1-5.644.216,20.474,20.474,0,0,1-5.654-1.04c-1.152-.423-2.491-.266-3.525-1.208-.525-.478-1.467-.473-2.181-.777a30.285,30.285,0,0,1-2.971-1.436c-1.437-.808-2.843-1.672-4.24-2.549a9.159,9.159,0,0,0-2.058-1.216c-.645-.211-1.072-1.09-1.491-1.555l.074.4-.252.1-.373-1a10.634,10.634,0,0,1-2.413-1.186,7.672,7.672,0,0,1-2.771-3.916c-.858-3.261-1.969-6.457-3.035-9.66-.8-2.39-1.683-4.75-2.537-7.121-.391-1.084-.849-2.146-1.185-3.247-.233-.765-.6-1.023-1.378-.592.943-2.585-.8-4.35-1.659-6.352q.146.478.291.956l-.155.295c-.333-.185-.967-.421-.946-.546.083-.492-.994-1.136.092-1.548l.45,1.594.279-.75c-.142-.487-.255-.985-.434-1.458a10.907,10.907,0,0,0-.9-2.053c-.264-.411-.457-1.056-1.257-.94-.264.038-.594-.38-.894-.59l.128-.306,1.591.439c-1-1.657-2.24-2.993-2.63-4.543a20.378,20.378,0,0,0-2.263-4.577c-.776-1.467-1.255-3.208-2.95-4.174.419-.736.082-1.263-.646-1.779-.329-.234-.363-.855-.59-1.268-.543-.989-1.077-1.988-1.705-2.923-.28-.417-.518-1.155-1.347-.741-.093.046-.336-.209-.13-.391.03-.333.216-.788.066-.982-2.756-3.557-5.519-7.109-8.361-10.6a31.547,31.547,0,0,0-2.73-2.539,33.3,33.3,0,0,0-3.908-3.767c-1.529-1.048-3.059-2.369-5.216-2.122a1.586,1.586,0,0,1-1.844-.819c-.185-.373-1.1-.385-1.826-.6l-.464.346-4.388-1.2-.251.377,1.145,1.529a16.039,16.039,0,0,1-2.491,1.046c-.888.221-1.266.912-.694,1.949l-1.307-.585.562,1.4-.863.5-.108-1.04-.782,1.436a5.965,5.965,0,0,1,.818.475.622.622,0,0,1,.18.461.406.406,0,0,1-.321.236c-1.891-.387-.957,1.359-1.439,2.018-.334.456,0,1.349-.162,2-.246.962-.094,1.6.668,1.743-.194.382-.536.739-.5,1.059.074.73.37,1.434.5,2.162.184,1,.206,2.039.467,3.015.754,2.819,1.587,5.617,2.4,8.419.323,1.109.682,2.208,1.075,3.471l.709-.654c-.131,2.442,1.691,3.941,2.641,5.817,1,1.979,2.3,3.807,3.443,5.716.888,1.485,1.682,3.028,2.612,4.486q3.577,5.6,7.25,11.146a15.877,15.877,0,0,0,1.8,2.146c.706.739,1.852,1.282,2.15,2.139.668,1.921,2.589,2.806,3.356,4.584.169.393.622.665.948.989.58.577,1.168,1.145,1.743,1.726,1.25,1.264,2.47,2.56,3.747,3.8,1.346,1.3,2.7,2.6,4.131,3.814a51.113,51.113,0,0,0,5.1,4c1.711,1.111,2.419,2.769,3.178,4.476.322.723.715,1.416,1.111,2.192a17.14,17.14,0,0,1-6.049,2.422c-.193.037-.334.34-.359.367-1.628-.036-3.46-.531-4.9.01-1.681.629-2.847-.417-4.267-.481a33.7,33.7,0,0,1-7.043-1.241c-2.525-.67-4.984-1.606-7.448-2.49-1.506-.54-2.958-1.232-4.458-1.789a2.7,2.7,0,0,0-1.049-.021,4.162,4.162,0,0,0-.8-.7c-2.493-1.14-5-2.255-7.5-3.372-.659-.294-1.048-.653-.573-1.425a1.013,1.013,0,0,0-.166-1.407,1.255,1.255,0,0,1-.3-.679c-.358-2.065-.806-4.123-1-6.2-.113-1.214-1.2-2.363-.312-3.655-.754-.47.445-1.757-.848-2.038-.1-.022-.232-.522-.146-.7.517-1.088-.153-1.677-.773-2.275V64.343l-.843-.455c.2-.447.6-.909.507-1.213-.132-.416-.641-.713-.989-1.062l-.332.137.372-1.569a14.162,14.162,0,0,1-1.247-.844c-.09-.072.028-.4.05-.617l.716.2.212-.163-1.93-2.348.876-.249-.549-1.446-.791.736a4.32,4.32,0,0,1-.237-.681c.7-.374.5-.854.457-1.519-.052-.8-.174-1.256-.961-1.543l.633-.16L83.1,49.334a14.255,14.255,0,0,0-.334-2.935,71.132,71.132,0,0,0-2.584-7.165c-1.328-3.039-2.833-6-4.345-8.958-.63-1.23-1.508-2.331-2.212-3.526-.51-.865-1.519-.744-2.2-1.25l.035-.042.213.625-.269.243a6.068,6.068,0,0,1-.667-.694,25.523,25.523,0,0,0-1.969-2.81,1.128,1.128,0,0,1-.26-1.561l-1.623-.387,1.61-.654c.148.952,1.2,1.363,1.286,2.386.022.265.46.5.707.742l.264-.263a17.081,17.081,0,0,1-1.169-1.848c-.815-1.724-1.415-3.482-2.969-4.851a49.8,49.8,0,0,1-4.4-5.042c-.415-.48-.883-.862-1.188-.209l2,1.928-.35.389-2.73-1.966.449-.158-1.427-.816h1.838c-.178-.684-.371-1.427-1.541-1.058-.154.049-.411-.226-.621-.352-.056.378-.111.758-.183,1.264L56.8,8.928l.79-.88.124,1.089Zm6.6,7.506,1.294,1.094-1.069.892c-.348-.4-.725-.818-1.055-1.266-.036-.049.2-.3.311-.456-.149-.193-.26-.481-.455-.559a5.176,5.176,0,0,0-1.095-.2l.032-.276.8-.085-.192-1.456C64.792,15.08,65.459,15.61,65.286,16.644Zm59.851,45.19c.912.368.939.8.033,1.689l-.227-.668c-.886.688-1.282.437-1.738-.918l1.388-.144.379-.677-2.725.313.333-1.062-.278.1-.46-1-.667.172-1.264-1.4.493-.583-.744-1.052-2.269-1.854,1.9-.292-2.509-1.406.662-1.557c.4,1.729,2.665,1.864,2.226,3.8-.013.059.276.216.443.282.379.15.769.272,1.22.428l-1.085.935,1.277-.246c.564.879,1.3,1.743.284,2.8.741.1,1.7-.078,1.554,1.161C124.679,59.878,125.119,60.151,125.138,61.834ZM71.419,82.747l1.688.64L73,83.681h-.491c1.588-.2,1.975.875,2.351,2.063-1.673-.237-2.7-1.407-3.874-2.322l-2.141-1.609c-3.257-1.9-5.907-4.741-8.976-7.648a3.883,3.883,0,0,1,1.155.235c.565.389,1.076.858,1.607,1.3,1.81,1.491,3.614,2.99,5.434,4.47.48.39.5,1.292,1.622,1.04C70.125,81.106,70.833,82.2,71.419,82.747ZM54.8,53.021l.427,1.419-.207.144-1.806-1.679.258-.333,1.363.484c-.682-1.249-1.373-2.493-2.045-3.747-1.083-2.023-2.192-4.033-3.219-6.084-.892-1.782-1.71-3.6-2.518-5.425a39.85,39.85,0,0,1-2.163-5.211,28.355,28.355,0,0,1-1.513-9.436c.02-.324-.284-.7-.2-.983.414-1.358.857-2.713,1.4-4.023.227-.549.652-1.295,1.121-1.41a4.028,4.028,0,0,1,3.392,1.1,20.033,20.033,0,0,1,2.629,2.527c1.146,1.292,2.2,2.664,3.289,4.007.119.148.164.461.286.486,1.373.279,1.354,1.9,2.433,2.5.351.2.339.968.593,1.421.948,1.688,1.932,3.356,2.915,5.024.286.484.615.942.835,1.275.348-.175.67-.4.716-.35a11.029,11.029,0,0,1,.839,1.063l-1.234.57a8.418,8.418,0,0,1,.976.566,1.936,1.936,0,0,1,.611.678,12.212,12.212,0,0,1,.419,1.558l.889-.577.358.867c-.586-.032-1.065-.213-.768.749.21.68.663.678,1.078.894a2.551,2.551,0,0,0,.493.144c-.186.08-.377.151-.555.246-.1.052-.173.146-.131.109.547.553,1.29,1.007,1.566,1.659.347.819.185,1.842.467,2.7.776,2.361,1.663,4.685,2.528,7.016.1.278.41.483.509.761.291.815.483,1.667.791,2.474.373.975.924,1.889,1.222,2.882.576,1.918.94,3.9,1.555,5.806.81,2.51,1.792,4.964,2.667,7.454a21.84,21.84,0,0,1,.745,2.672c.054.254-.177.568-.25.778L75.2,74.624l.138-.121L71.792,71.75c.2-1.3-.949-.41-1.4-.424.086-.478.375-1.135.2-1.292a26.785,26.785,0,0,0-2.519-1.877c-.089-.21-.131-.61-.337-.73a9.233,9.233,0,0,0-1.508-.584q.034.422.068.844c-.845-.841-2.347-1.022-2.245-2.524-.629-.376-1.286-.714-1.872-1.147-.234-.172-.274-.771-.468-.806-1.164-.209-1.363-1.474-2.324-2-.743-.41-1.01-1.685-1.638-2.854l1.589.57c-.83-1.242-1.6-2.5-2.476-3.665A28.264,28.264,0,0,0,54.8,53.021Zm116.909-19.9-.941.091a2.488,2.488,0,0,0,.176.775,12.908,12.908,0,0,0,1.393,2.028,10.541,10.541,0,0,0,1.674,1.238c-.6,1.012,1.156,4.283,2.717,4.916-.05.257-.2.535-.122.7.556,1.18,1.166,2.334,1.747,3.5a19.4,19.4,0,0,1,1.568,3.328c.262.953.821,2.422,1.613,2.9.084.05.133.159.243.3l-.618.234c.452,1.574.847,3.1,1.335,4.6a25.545,25.545,0,0,0,1.088,2.44,4.417,4.417,0,0,1-1.3-.526c-1.268-1.047-2.474-2.17-3.7-3.269-.8-.717-1.638-1.395-2.374-2.172-2.8-2.957-5.55-5.961-8.354-8.913a18.622,18.622,0,0,0-1.868-1.466c-.642-.521-.655-1.39-1.028-2a29.33,29.33,0,0,0-2.426-2.671C161.3,37.6,160.144,36,159.005,34.379a5.89,5.89,0,0,1-.531-1.4l-1.145-1.537c-.222-.357-.638-.636-.782-1.017a27.762,27.762,0,0,1-1.44-4.387,23.272,23.272,0,0,1-.225-4.293c-.008-1.463,1.036-2.514,1.664-3.717.1-.2.784-.279,1.08-.148a6.231,6.231,0,0,1,1.183.96,17.308,17.308,0,0,1,1.961,1.56c.684.736,1.178,1.645,1.83,2.416,1.038,1.228,2.161,2.385,3.205,3.608.937,1.1,1.857,1.144,2.791.048l.682,1.117-1.662.769,1.192.452-.319.167c.326.724.469,1.807,1.022,2.09.856.438,1.006.756.533,1.592a3.711,3.711,0,0,0,.73-.887c.173-.264.351-.524.527-.785l.529.082C170.588,31.833,171.54,32.415,171.711,33.118Zm-58.005-5.165c-.056.4-.259.832-.124,1.061.808,1.364,1.673,2.7,2.563,4.009.425.627,1.348,1.189,1.348,1.78,0,1.626,1.1,2.563,1.831,3.741q.207.333.392.679c.6,1.12,1.192,2.242,1.727,3.249a5.193,5.193,0,0,0,.265,1.315c.679,1.356,1.425,2.679,2.18,4.079,1.246-.29,1.121.914,1.509,1.807l-.982-.592-.184.226,1.061.937-.246.092,2.215,4.986,1.152.175-.812.6,1.182.578-.335,1.063.757-.22c0,.462.02.817-.006,1.167a4.054,4.054,0,0,0-.131,1.144,32.111,32.111,0,0,0,.978,3.233,4,4,0,0,0,.74.963.921.921,0,0,1-1.027-.065c-.639-.732-1.265-1.825-1.9-2.143-1.213-.6-.966-2.1-2.173-2.6-.54-.222-.823-1.07-1.22-1.635a11.448,11.448,0,0,1-1.005-1.476,4.116,4.116,0,0,0-1.876-2.2c-.126-.058-.291-.25-.278-.361.174-1.427-1.072-2.139-1.665-3.142-1.049-1.775-2.5-3.309-3.613-5.052-1.093-1.71-1.954-3.566-2.956-5.335-.827-1.458-1.715-2.881-2.571-4.322-.724-1.219-1.426-2.451-2.166-3.66-.538-.878-1.169-1.7-1.671-2.6-.468-.835-1.263-1.365-1.672-2.31-.979-2.263-2.314-4.371-3.334-6.619a9.335,9.335,0,0,1-1.164-5.276,6.314,6.314,0,0,1,4.873,2.364c.516.69.909.888,1.327.807.428.72.761,1.322,1.136,1.9a13.944,13.944,0,0,0,.922,1.212c.524.635.442,1.871,1.761,1.679C110.029,24.309,112.42,27.458,113.706,27.953Zm72.511,64.464c.172.139.362.214.394.331.344,1.251-1.506,3.7-2.793,3.741-1.042.03-2.088.162-3.125.109q-4.429-.223-8.849-.588c-.434-.036-.837-.442-1.25-.673,2.669,0,5.222.049,7.773-.022a19.382,19.382,0,0,0,3.49-.489c.5-.107.912-.669,1.4-.738A4.511,4.511,0,0,0,186.217,92.417ZM79.615,88.3c-1.726.369-3.813-1.16-4.261-3.2.839.567,1.492,1.374,2.148,1.377C78.916,86.483,78.547,88.019,79.615,88.3Zm43.96,10.018.144.946-.186.045-.877-1.78a10.861,10.861,0,0,1,2.885-.376c.3.037.471,1.182.668,1.73l-2.125.632c.033-.638,1.126-.918.658-1.854Zm54.041,1-.141.366c-2.825-.78-5.888-.655-8.686-2.321ZM13.384,95.119l.451,1.2h-1.9L12,97.1c-1.407-.09-.712-1.064-.884-1.619ZM50.8,49.676c1.01-.654,1.01-.654,2.189,1.766C51.556,51.7,51.418,50.389,50.8,49.676ZM158.493,4.567c-.651-.171-1.225-.309-1.791-.477a4.465,4.465,0,0,1-.628-.293c.214-.2.5-.611.632-.567C157.394,3.45,158.406,3.266,158.493,4.567ZM112.379,45.088c1.7.8,2.414,1.97,1.788,2.713ZM67.37,76.681l-2.443-2.107C67.613,76.107,67.613,76.107,67.37,76.681Zm72.162-13.917a8.059,8.059,0,0,1,1.357,1.17c.156.216.025.661-.035.991-.01.056-.453.114-.468.077C140.1,64.309,139.843,63.6,139.532,62.764Zm-30.375,33q.005.143.011.285l-1.18-1.109,3.336.255q-.006.149-.011.3ZM76.354,105.8c.113-.22.284-.722.376-.708.8.121,1.582.335,2.37.521l-.087.322ZM74.3,81.358l-.2.282L70.95,79.432l.233-.334Zm99.876-45.222-.261.323-2.071-1.836C173.6,34.092,173.219,35.921,174.174,36.136ZM9.48,96.409c-.43-1.467.693-.875,1.344-.948v1.124ZM216.35,37.374c1.78,1.055,2.08,3.148,3.15,4.628a.935.935,0,0,0,.25.786c.611.522,1.571.814,1.117,1.941,1.254.6,2.974,3.362,2.764,3.891.615.479,1.151.9,1.688,1.313.965.748,1.207,2.022,2.145,2.837.756.657,1.079,1.952,1.9,2.367,1.466.745.994,1.9,1.006,2.92.052,4.316.022,8.632.022,12.948v3.211a14.739,14.739,0,0,1-2-1.332c-1.463-1.362-2.863-2.792-4.261-4.222-.131-.134-.069-.457-.1-.692.232-.016.465-.049.7-.041.249.008.5.054.7.078-.164-.437-.224-.823-.331-.836-.249-.031-.517.139-.785.186-.452.079-1.056.335-1.334.141a8.617,8.617,0,0,1-1.591-1.667c-1.171-1.423-2.339-2.85-3.457-4.314-.589-.771-1.07-1.624-1.748-2.666l-.989-.984.645-.89h-1.026l-.585-1.46c-.688.555-.563-.044-.663-.432a4.5,4.5,0,0,0-.56-.922l1.778.241c-.526-1.923-2.032-2.485-3.857-2.59l.562-1.327c-1.064.363-1.043.358-1.272-.585a2.106,2.106,0,0,0-.454-.8,17.738,17.738,0,0,1-1.587-1.834c-1.062-1.713-2.06-3.467-3.023-5.238q-1.4-2.583-2.67-5.238c-.314-.654-.378-1.426-.679-2.089-.613-1.348-1.36-2.636-1.95-3.993a7.339,7.339,0,0,1-.5-2.168,16.98,16.98,0,0,1,.124-1.788,4.754,4.754,0,0,0-.193-1.111c-.08-.336-.2-.662-.339-1.126l.4-.835c-.406-.521-.939-.894-.957-1.29a20.779,20.779,0,0,1,.274-2.69,15.051,15.051,0,0,0,.033-1.875c-.041-1.047-.413-2.179-.13-3.12a10.457,10.457,0,0,1,3.9-5.6,3.864,3.864,0,0,0,1.556-2.1,7.632,7.632,0,0,1,6.5-5.67,12.8,12.8,0,0,1,3.931.249A23.393,23.393,0,0,1,224.6,6.55a33.324,33.324,0,0,1,4.186,4.124,4.825,4.825,0,0,1,1.669,3.591c-.154,5.9-.061,11.8-.061,17.7V33.7c-2.311-3.1-4.027-6.253-6.53-8.826-2.041-2.1-4.006-4.272-6.085-6.331a13.685,13.685,0,0,0-2.76-2.008c-.634-.37-1.515-.937-2.142-.175a9.35,9.35,0,0,0-2.006,3.249c-1.088,4.1.417,7.761,2.269,11.327a9.443,9.443,0,0,1,.493,1.924C214.788,33.235,216.786,36.361,216.35,37.374Zm2.675,48.519a64.155,64.155,0,0,1,6.384,2.623c.243.113.363.49.713.992L221.4,87.784l-.68-.056ZM.264,90.627a20.96,20.96,0,0,1,5.5,2.58l-2.509-.532.035,0C1.473,92.159.172,91.292.264,90.627ZM71,22.879c.36.275.732.416.826.663a4.751,4.751,0,0,1,.134,1.261c-.768-.217-.464.384-.534.7l.035-.042c.007-.855-1.1-1.2-.972-2.11l.264-.263Zm77.035,17.9,1.523,1.429-.1.308c-.466-.094-1.073-.043-1.359-.322s-.255-.888-.362-1.352Zm24.833,64.4-.038-.333,1.756-.468,1.191.478ZM146.377,36.96c-.485-.165-1.165-.2-1.391-.536-.174-.26.222-.9.389-1.455.736.834.806,1.041.5,1.275l.618.467ZM230.227,91.3c-.929.019-1.6-.376-2.051-1.66l2.289,1.2ZM150.536,45.5a4.827,4.827,0,0,1-1.5-2.42c1.025.542,1.325,1.041,1.476,2.452Z" transform="translate(0)" fill="#00500a"/></g><g transform="translate(690.409 0)"><path d="M58.688,9.138c.265-1.219-.767-1.351-1.456-1.478a5.857,5.857,0,0,1-2.948-1.712c-.845-.778-1.809-1.428-2.775-2.176l-.484.718c-.115-.028-.212-.021-.245-.063-1.032-1.338-2.706-1.578-4.106-2.118A6.057,6.057,0,0,0,42.25,2.03a13.261,13.261,0,0,0-4.93,3.1,9.4,9.4,0,0,0-1.645,2.1c-.822,1.488-1.481,3.065-2.271,4.573-.893,1.7-.668,3.635-1.156,5.433-.345,1.27.123,2.744.1,4.125-.012.646-.444,1.279-.49,1.931-.1,1.486-.114,2.981-.1,4.471a10.249,10.249,0,0,0,.256,2.282c.094.391.621.686.694,1.073a11.651,11.651,0,0,1-.117,1.552,5.459,5.459,0,0,0,.467,1.984c-.613-1.117.267-.91.947-.99l-.654,1.466.328.117-.4,1.192c.836.007,1.885,1.542,1.737,2.3a1.38,1.38,0,0,0,.05.872A19.6,19.6,0,0,1,37,44.689a12.19,12.19,0,0,0,.871,1.923,4.311,4.311,0,0,0,.149,1.772c.662,1.264,1.566,2.4,2.31,3.624.363.6.554,1.3.885,1.919.475.892,1.008,1.752,1.511,2.628.182.317.34.647.524.962a40.275,40.275,0,0,0,2.128,3.565c1.644,2.24,3.3,4.487,5.131,6.571a81.784,81.784,0,0,0,11.516,11c2.682,2.06,5.221,4.307,7.889,6.389,1.119.873,2.425,1.5,3.605,2.3.7.471,1.287,1.1,1.973,1.584a8.973,8.973,0,0,0,1.958,1.145c1.616.609,1.808,1.363.951,2.825a10.175,10.175,0,0,1-2.963,3.131c-.166.12-.626.151-.68.061-.88-1.472-2.47-1.347-3.817-1.681q-6.263-1.553-12.56-2.975a53.693,53.693,0,0,1-8.664-3.3c-4.271-1.786-8.411-3.885-12.6-5.864-2.485-1.174-4.941-2.412-7.445-3.544a2.928,2.928,0,0,1-1.75-2.743,42.266,42.266,0,0,0-.685-4.189c-.488-2.454-.947-4.919-1.562-7.343-.623-2.457-1.414-4.872-2.147-7.3-.149-.493-.433-.95-.548-1.449a39.031,39.031,0,0,1-.785-3.974,4.926,4.926,0,0,0-1.464-3c.443-1.03-.986-4.456-2.387-5.523l.89-.445c-.72-.559-.5-1.756-1.689-2.128-.332-.1-.29-1.407-.428-2.207l-1.216-.168a12.873,12.873,0,0,0,.769-1.4c.025-.06-.4-.311-.562-.429a13.9,13.9,0,0,0-.685-2.641c-1.08-2.285-2.2-4.56-3.476-6.741-.776-1.329-2.092-2.372-2.72-3.746A10.182,10.182,0,0,0,7.9,21.385a4.5,4.5,0,0,0-.634-.594c-1.7-3.318-4.556-5.628-7.114-8.267-.024.384-.071.784-.071,1.184q-.006,9.383,0,18.767a3.365,3.365,0,0,0,1.041,2.542,6.658,6.658,0,0,1,.812,1.614,13.735,13.735,0,0,0,1.835,3.146c.54.559.162,1.168.594,1.652a7.971,7.971,0,0,1,1.22,1.9c.32.679.414,1.465.741,2.139.374.769,1.421,1.638,1.249,2.158-.394,1.191,1.224,1.572.741,2.718-.152.36.51,1.062.864,1.729a2.488,2.488,0,0,0,.016.913q1.144,3.321,2.378,6.611c.116.309.492.513.655.816a3.212,3.212,0,0,1,.119.781c.2.9.423,1.789.628,2.684.309,1.348.611,2.7.944,4.17-3.341-1.257-5.1-4.391-7.763-5.668l-6-6.242c-.032.566-.074.974-.074,1.382,0,4.434,0,8.869-.009,13.3,0,.865.4,1.692.035,2.606-.423,1.062.477,1.736,1.131,2.242Q6.657,79.864,12.2,83.9c1.45,1.055,3.1,1.841,4.531,2.917a2.17,2.17,0,0,1,.569,1.833c-.111.536-.381.809.125,1.354.482.519-.726,2.235-1.564,2.53a16.447,16.447,0,0,1-5.827.936,1.931,1.931,0,0,0-.814.336c-1.094-.052-2.088-.053-3.07-.159a26.422,26.422,0,0,1-2.711-.491c-.09-.019-.12-.311-.182-.475l.035,0a10.319,10.319,0,0,1-1.578-.126,9.677,9.677,0,0,1-1.464-.594,3.437,3.437,0,0,0-.156.656c-.009,3.483-.018,6.966,0,10.45,0,.945,1.034,1.515,2.154,1.173a1.307,1.307,0,0,1,1.046.114,10.453,10.453,0,0,0,2.562.456,23.652,23.652,0,0,0,2.533.313c1.679.054,3.361.017,5.042.043a7.343,7.343,0,0,1,1.195.259H17.29l-.443-.174c.1-.385,1.945-.4,2.241-.063.044.051.136.06.286.122.708-1.071,1.714-1.211,2.994-1.2.875,0,1.8-.785,2.621-1.347A11.242,11.242,0,0,0,29.32,96.9a8.29,8.29,0,0,0,.175-1.74c.117-1.113.659-1.391,1.709-.955a7.081,7.081,0,0,0,1.321.266,5.024,5.024,0,0,0,1.267.926c1.845.666,3.6,1.513,5.388,2.31,1.133.506,2.425.648,3.606,1.065.735.26,1.377.774,2.1,1.1,1.541.689,3.113,1.307,4.654,1.995a3.016,3.016,0,0,0,2.058.018c1.408-.313,2.757.348,4.07.869.715.284,1.435.557,2.267.88l-.594.992c1.782.259,3.336,1.359,5.324,1.154l.117.755.474-1.108c.378,1.292.664,1.346,2.1.325.3,1.181,1.252,1.129,2.181,1.2,2.363.173,4.733.309,7.083.6,4.031.492,7.721-.219,10.584-3.234A9.951,9.951,0,0,0,88.3,98.3c.149-1.831,1.317-2.458,2.8-1.484.713.47,1.547.512,2.262,1.275.841.9,2.416,1.106,3.741,1.641-.455,1.273.6,1.189,1.338,1.43.475.155.93.374,1.582.641l.146-.109c.735.4.577,1.689,1.852,1.308.063-.019.2.461.382.553,1.392.7,2.8,1.368,4.209,2.04.225.108.571.128.674.3a1.233,1.233,0,0,0,1.785.577c.166-.074.445.106.672.169l-.2.668c2.289.591,4.214,2.486,6.883,1.9a8.155,8.155,0,0,0,.255.968.51.51,0,0,0,.354.262c.077.01.162-.237.277-.281.405-.156.825-.275.968-.321.306.48.451,1,.71,1.068a49.4,49.4,0,0,0,6.738,1.265l-.42-.555,2.069.938-.069-.417c.264-.2.544-.583.787-.56a3.052,3.052,0,0,1,1.2.532c.172.1.349.517.371.505,2.089-1.119,4.518-.713,6.652-1.449,1.826-.63,3.676-1.446,4.775-3.259.579-.954,1.6-1.242,2.527-1.751a7.748,7.748,0,0,0,4.225-6.461c.153-1.788.584-3.553.889-5.328.037-.218.065-.437.128-.858a5.378,5.378,0,0,1,1.209.624c.87.791,2.068,1.093,2.795,2.178.334.5,1.189.741,1.438,1.488a.132.132,0,0,0,.1.065c.612.066,1.224.127,1.543.16l.859,1.679.323-.148-.6-1.181.191-.326a112.906,112.906,0,0,1,10.935,4.825c0,.019-.009-.175-.018-.368a2.916,2.916,0,0,0,.415.351,3.2,3.2,0,0,0,1.033.515c1.521.21,3.055.328,4.577.535a3.21,3.21,0,0,1,.936.481l1.191.478c-.087.608.258.865.748.647a2.743,2.743,0,0,1,2.537-.119.951.951,0,0,0,.527.033,31.979,31.979,0,0,1,5.872-.743c2.243.119,4.2-.816,6.314-1.083a4.881,4.881,0,0,0,1.948-.852,38.171,38.171,0,0,0,3.744-2.714,6.7,6.7,0,0,0,1.957-2.362c.488-1.213,1.43-2.072,1.7-3.295.162-.489.328-.976.484-1.467.5-1.565.81-1.537,2.3-.64,2.447,1.477,5.009,2.765,7.533,4.113.191.1.574.155.687.045.891-.864,1.534-.009,1.824.481.374.629.476.936,1.257.508.344-.188.951.1,1.474.183l-.628.356a6.037,6.037,0,0,1,.968.5c.425.336,1.316-.036,1.358.89,0,.066.219.2.284.174,1.034-.425,1.4.639,2.1.927,2.041.833,4.035,1.968,6.16,2.339,1.175.206,2.138.881,3.46,1.031v-1.7c0-3.006-.043-6.013.026-9.018a1.438,1.438,0,0,0-1.074-1.58,17.193,17.193,0,0,1-3.857-1.465c-1.307-.9-3.118-.837-4.087-2.272l-.68-.056a3.9,3.9,0,0,1-2.834-1.761h.892c-.954-1.264-2.743-1.93-3.354-1.561-.47-.187-.752-.282-1.018-.41a9.93,9.93,0,0,1-.916-.5,31.682,31.682,0,0,1-4.724-3c-1.885-1.7-4.274-2.788-5.8-4.876a2.268,2.268,0,0,1-.207-1.191,26.219,26.219,0,0,0-1.14-7.468,46.58,46.58,0,0,1-.941-4.6c-.211-.973-.5-1.929-.765-2.89-.3-1.094-.552-2.2-.912-3.276-.581-1.735-1.251-3.44-1.844-5.172-.295-.862-.418-1.789-.765-2.627-.543-1.31-1.206-2.571-1.825-3.85-.492-1.017-.96-2.049-1.5-3.04-.6-1.1-1.275-2.168-1.921-3.247-.746-1.247-1.521-2.477-2.235-3.742-.755-1.338-1.458-2.707-2.176-4.066-.5-.938-.971-1.885-1.471-2.82-.1-.186-.246-.453-.407-.482-.793-.141-.722-.793-.935-1.332-.35-.886-.414-2.1-1.971-2.031l.293-.676c-.231-.309-1.309-.264-.594-1.176.03-.038-.065-.227-.146-.29-1.54-1.2-1.876-3.208-3.105-4.6-.523-.594-.592-1.611-1.68-1.746-.257-.032-.439-.662-.777-.892a2.861,2.861,0,0,1-.553-.619c-.115-.241,0-.626-.15-.809a23.11,23.11,0,0,0-1.8-1.918c-.158-.152-.476-.13-.713-.209-.149-.05-.4-.13-.408-.212-.14-1.78-1.808-2.352-2.811-3.385a26.633,26.633,0,0,0-4.353-3.359A23.653,23.653,0,0,0,160.055.912a10.017,10.017,0,0,0-5.949-.7c-1.264.313-1.348,1.447-2.436,1.706l.859.418-.16.389L151.2,2.237a5.19,5.19,0,0,0-.955,1.031A7.327,7.327,0,0,0,149.4,5.43c-.274,1.646-1.4,2.04-2.792,2.173a1.063,1.063,0,0,0-.544.244c-.571.479-1.317.881-1.64,1.5-.794,1.516-1.935,2.838-2.145,4.709-.089.793.162,2.089-1.036,2.612-.1.044-.163.38-.114.542a3.33,3.33,0,0,1-.353,2.669l1.559.73-.065.259-1.1.115c.536.466,1.13.739,1.289,1.171a14.834,14.834,0,0,1,.53,2.65c.208,1.23.409,2.462.59,3.7.077.521.095,1.05.152,1.72l-1.059.619,1.939,2.319-1.045.373c.317.327.541.771.831.82a2.323,2.323,0,0,1,2.219,1.75,31.79,31.79,0,0,0,2.257,3.809c.081.128.444.077.344.063a10.2,10.2,0,0,0,.576,1.375c.714,1.146,1.468,2.267,2.208,3.4.1.151.194.307.306.447.227.283.465.556.7.834l-.216.276.815.147-.249,1.5c-1-.063-1.5-.568-1.567-1.353-.078-.863-.581-1.039-1.282-1.06l.026-.029a9.868,9.868,0,0,0,2.088,3.135c.5.492.459,1.489,1.211,1.941.021.013-.064.2-.1.312,1.5.408,1.341,2.117,2.338,2.964a29,29,0,0,1,2.821,2.943c.893,1.008,1.674,2.116,2.593,3.1,1.6,1.715,3.229,3.416,4.938,5.024a23.968,23.968,0,0,0,2.869,2.008c-.319,1.044.94,1.275,1.519,1.877a46.586,46.586,0,0,0,3.6,3.158c1.5,1.27,3.011,2.536,4.544,3.77a2.257,2.257,0,0,0,.857.244,21.15,21.15,0,0,0,1.486,1.627,10.272,10.272,0,0,0,1.733,1.244,10.839,10.839,0,0,0,1.681.594c.742.728,1.786,1.765,2.846,2.787.552.532.963,1,.549,1.9a7.206,7.206,0,0,0-.2,1.938c-.118.841-.26,1.682-.453,2.509-.2.862-.473,1.707-.631,2.268a6.079,6.079,0,0,0-1.834.448c-.844.566-1.541,1.346-2.365,1.948-.25.183-.714.085-1.081.1-.684.023-1.37.022-2.054.051a52.1,52.1,0,0,1-5.644.216,20.474,20.474,0,0,1-5.654-1.04c-1.152-.423-2.491-.266-3.525-1.208-.525-.478-1.467-.473-2.181-.777a30.285,30.285,0,0,1-2.971-1.436c-1.437-.808-2.843-1.672-4.24-2.549a9.159,9.159,0,0,0-2.058-1.216c-.645-.211-1.072-1.09-1.491-1.555l.074.4-.252.1-.373-1a10.634,10.634,0,0,1-2.413-1.186,7.672,7.672,0,0,1-2.771-3.916c-.858-3.261-1.969-6.457-3.035-9.66-.8-2.39-1.683-4.75-2.537-7.121-.391-1.084-.849-2.146-1.185-3.247-.233-.765-.6-1.023-1.378-.592.943-2.585-.8-4.35-1.659-6.352q.146.478.291.956l-.155.295c-.333-.185-.967-.421-.946-.546.083-.492-.994-1.136.092-1.548l.45,1.594.279-.75c-.142-.487-.255-.985-.434-1.458a10.907,10.907,0,0,0-.9-2.053c-.264-.411-.457-1.056-1.257-.94-.264.038-.594-.38-.894-.59l.128-.306,1.591.439c-1-1.657-2.24-2.993-2.63-4.543a20.378,20.378,0,0,0-2.263-4.577c-.776-1.467-1.255-3.208-2.95-4.174.419-.736.082-1.263-.646-1.779-.329-.234-.363-.855-.59-1.268-.543-.989-1.077-1.988-1.705-2.923-.28-.417-.518-1.155-1.347-.741-.093.046-.336-.209-.13-.391.03-.333.216-.788.066-.982-2.756-3.557-5.519-7.109-8.361-10.6a31.547,31.547,0,0,0-2.73-2.539,33.3,33.3,0,0,0-3.908-3.767c-1.529-1.048-3.059-2.369-5.216-2.122a1.586,1.586,0,0,1-1.844-.819c-.185-.373-1.1-.385-1.826-.6l-.464.346-4.388-1.2-.251.377,1.145,1.529a16.039,16.039,0,0,1-2.491,1.046c-.888.221-1.266.912-.694,1.949l-1.307-.585.562,1.4-.863.5-.108-1.04-.782,1.436a5.965,5.965,0,0,1,.818.475.622.622,0,0,1,.18.461.406.406,0,0,1-.321.236c-1.891-.387-.957,1.359-1.439,2.018-.334.456,0,1.349-.162,2-.246.962-.094,1.6.668,1.743-.194.382-.536.739-.5,1.059.074.73.37,1.434.5,2.162.184,1,.206,2.039.467,3.015.754,2.819,1.587,5.617,2.4,8.419.323,1.109.682,2.208,1.075,3.471l.709-.654c-.131,2.442,1.691,3.941,2.641,5.817,1,1.979,2.3,3.807,3.443,5.716.888,1.485,1.682,3.028,2.612,4.486q3.577,5.6,7.25,11.146a15.877,15.877,0,0,0,1.8,2.146c.706.739,1.852,1.282,2.15,2.139.668,1.921,2.589,2.806,3.356,4.584.169.393.622.665.948.989.58.577,1.168,1.145,1.743,1.726,1.25,1.264,2.47,2.56,3.747,3.8,1.346,1.3,2.7,2.6,4.131,3.814a51.113,51.113,0,0,0,5.1,4c1.711,1.111,2.419,2.769,3.178,4.476.322.723.715,1.416,1.111,2.192a17.14,17.14,0,0,1-6.049,2.422c-.193.037-.334.34-.359.367-1.628-.036-3.46-.531-4.9.01-1.681.629-2.847-.417-4.267-.481a33.7,33.7,0,0,1-7.043-1.241c-2.525-.67-4.984-1.606-7.448-2.49-1.506-.54-2.958-1.232-4.458-1.789a2.7,2.7,0,0,0-1.049-.021,4.162,4.162,0,0,0-.8-.7c-2.493-1.14-5-2.255-7.5-3.372-.659-.294-1.048-.653-.573-1.425a1.013,1.013,0,0,0-.166-1.407,1.255,1.255,0,0,1-.3-.679c-.358-2.065-.806-4.123-1-6.2-.113-1.214-1.2-2.363-.312-3.655-.754-.47.445-1.757-.848-2.038-.1-.022-.232-.522-.146-.7.517-1.088-.153-1.677-.773-2.275V64.343l-.843-.455c.2-.447.6-.909.507-1.213-.132-.416-.641-.713-.989-1.062l-.332.137.372-1.569a14.162,14.162,0,0,1-1.247-.844c-.09-.072.028-.4.05-.617l.716.2.212-.163-1.93-2.348.876-.249-.549-1.446-.791.736a4.32,4.32,0,0,1-.237-.681c.7-.374.5-.854.457-1.519-.052-.8-.174-1.256-.961-1.543l.633-.16L83.1,49.334a14.255,14.255,0,0,0-.334-2.935,71.132,71.132,0,0,0-2.584-7.165c-1.328-3.039-2.833-6-4.345-8.958-.63-1.23-1.508-2.331-2.212-3.526-.51-.865-1.519-.744-2.2-1.25l.035-.042.213.625-.269.243a6.068,6.068,0,0,1-.667-.694,25.523,25.523,0,0,0-1.969-2.81,1.128,1.128,0,0,1-.26-1.561l-1.623-.387,1.61-.654c.148.952,1.2,1.363,1.286,2.386.022.265.46.5.707.742l.264-.263a17.081,17.081,0,0,1-1.169-1.848c-.815-1.724-1.415-3.482-2.969-4.851a49.8,49.8,0,0,1-4.4-5.042c-.415-.48-.883-.862-1.188-.209l2,1.928-.35.389-2.73-1.966.449-.158-1.427-.816h1.838c-.178-.684-.371-1.427-1.541-1.058-.154.049-.411-.226-.621-.352-.056.378-.111.758-.183,1.264L56.8,8.928l.79-.88.124,1.089Zm6.6,7.506,1.294,1.094-1.069.892c-.348-.4-.725-.818-1.055-1.266-.036-.049.2-.3.311-.456-.149-.193-.26-.481-.455-.559a5.176,5.176,0,0,0-1.095-.2l.032-.276.8-.085-.192-1.456C64.792,15.08,65.459,15.61,65.286,16.644Zm59.851,45.19c.912.368.939.8.033,1.689l-.227-.668c-.886.688-1.282.437-1.738-.918l1.388-.144.379-.677-2.725.313.333-1.062-.278.1-.46-1-.667.172-1.264-1.4.493-.583-.744-1.052-2.269-1.854,1.9-.292-2.509-1.406.662-1.557c.4,1.729,2.665,1.864,2.226,3.8-.013.059.276.216.443.282.379.15.769.272,1.22.428l-1.085.935,1.277-.246c.564.879,1.3,1.743.284,2.8.741.1,1.7-.078,1.554,1.161C124.679,59.878,125.119,60.151,125.138,61.834ZM71.419,82.747l1.688.64L73,83.681h-.491c1.588-.2,1.975.875,2.351,2.063-1.673-.237-2.7-1.407-3.874-2.322l-2.141-1.609c-3.257-1.9-5.907-4.741-8.976-7.648a3.883,3.883,0,0,1,1.155.235c.565.389,1.076.858,1.607,1.3,1.81,1.491,3.614,2.99,5.434,4.47.48.39.5,1.292,1.622,1.04C70.125,81.106,70.833,82.2,71.419,82.747ZM54.8,53.021l.427,1.419-.207.144-1.806-1.679.258-.333,1.363.484c-.682-1.249-1.373-2.493-2.045-3.747-1.083-2.023-2.192-4.033-3.219-6.084-.892-1.782-1.71-3.6-2.518-5.425a39.85,39.85,0,0,1-2.163-5.211,28.355,28.355,0,0,1-1.513-9.436c.02-.324-.284-.7-.2-.983.414-1.358.857-2.713,1.4-4.023.227-.549.652-1.295,1.121-1.41a4.028,4.028,0,0,1,3.392,1.1,20.033,20.033,0,0,1,2.629,2.527c1.146,1.292,2.2,2.664,3.289,4.007.119.148.164.461.286.486,1.373.279,1.354,1.9,2.433,2.5.351.2.339.968.593,1.421.948,1.688,1.932,3.356,2.915,5.024.286.484.615.942.835,1.275.348-.175.67-.4.716-.35a11.029,11.029,0,0,1,.839,1.063l-1.234.57a8.418,8.418,0,0,1,.976.566,1.936,1.936,0,0,1,.611.678,12.212,12.212,0,0,1,.419,1.558l.889-.577.358.867c-.586-.032-1.065-.213-.768.749.21.68.663.678,1.078.894a2.551,2.551,0,0,0,.493.144c-.186.08-.377.151-.555.246-.1.052-.173.146-.131.109.547.553,1.29,1.007,1.566,1.659.347.819.185,1.842.467,2.7.776,2.361,1.663,4.685,2.528,7.016.1.278.41.483.509.761.291.815.483,1.667.791,2.474.373.975.924,1.889,1.222,2.882.576,1.918.94,3.9,1.555,5.806.81,2.51,1.792,4.964,2.667,7.454a21.84,21.84,0,0,1,.745,2.672c.054.254-.177.568-.25.778L75.2,74.624l.138-.121L71.792,71.75c.2-1.3-.949-.41-1.4-.424.086-.478.375-1.135.2-1.292a26.785,26.785,0,0,0-2.519-1.877c-.089-.21-.131-.61-.337-.73a9.233,9.233,0,0,0-1.508-.584q.034.422.068.844c-.845-.841-2.347-1.022-2.245-2.524-.629-.376-1.286-.714-1.872-1.147-.234-.172-.274-.771-.468-.806-1.164-.209-1.363-1.474-2.324-2-.743-.41-1.01-1.685-1.638-2.854l1.589.57c-.83-1.242-1.6-2.5-2.476-3.665A28.264,28.264,0,0,0,54.8,53.021Zm116.909-19.9-.941.091a2.488,2.488,0,0,0,.176.775,12.908,12.908,0,0,0,1.393,2.028,10.541,10.541,0,0,0,1.674,1.238c-.6,1.012,1.156,4.283,2.717,4.916-.05.257-.2.535-.122.7.556,1.18,1.166,2.334,1.747,3.5a19.4,19.4,0,0,1,1.568,3.328c.262.953.821,2.422,1.613,2.9.084.05.133.159.243.3l-.618.234c.452,1.574.847,3.1,1.335,4.6a25.545,25.545,0,0,0,1.088,2.44,4.417,4.417,0,0,1-1.3-.526c-1.268-1.047-2.474-2.17-3.7-3.269-.8-.717-1.638-1.395-2.374-2.172-2.8-2.957-5.55-5.961-8.354-8.913a18.622,18.622,0,0,0-1.868-1.466c-.642-.521-.655-1.39-1.028-2a29.33,29.33,0,0,0-2.426-2.671C161.3,37.6,160.144,36,159.005,34.379a5.89,5.89,0,0,1-.531-1.4l-1.145-1.537c-.222-.357-.638-.636-.782-1.017a27.762,27.762,0,0,1-1.44-4.387,23.272,23.272,0,0,1-.225-4.293c-.008-1.463,1.036-2.514,1.664-3.717.1-.2.784-.279,1.08-.148a6.231,6.231,0,0,1,1.183.96,17.308,17.308,0,0,1,1.961,1.56c.684.736,1.178,1.645,1.83,2.416,1.038,1.228,2.161,2.385,3.205,3.608.937,1.1,1.857,1.144,2.791.048l.682,1.117-1.662.769,1.192.452-.319.167c.326.724.469,1.807,1.022,2.09.856.438,1.006.756.533,1.592a3.711,3.711,0,0,0,.73-.887c.173-.264.351-.524.527-.785l.529.082C170.588,31.833,171.54,32.415,171.711,33.118Zm-58.005-5.165c-.056.4-.259.832-.124,1.061.808,1.364,1.673,2.7,2.563,4.009.425.627,1.348,1.189,1.348,1.78,0,1.626,1.1,2.563,1.831,3.741q.207.333.392.679c.6,1.12,1.192,2.242,1.727,3.249a5.193,5.193,0,0,0,.265,1.315c.679,1.356,1.425,2.679,2.18,4.079,1.246-.29,1.121.914,1.509,1.807l-.982-.592-.184.226,1.061.937-.246.092,2.215,4.986,1.152.175-.812.6,1.182.578-.335,1.063.757-.22c0,.462.02.817-.006,1.167a4.054,4.054,0,0,0-.131,1.144,32.111,32.111,0,0,0,.978,3.233,4,4,0,0,0,.74.963.921.921,0,0,1-1.027-.065c-.639-.732-1.265-1.825-1.9-2.143-1.213-.6-.966-2.1-2.173-2.6-.54-.222-.823-1.07-1.22-1.635a11.448,11.448,0,0,1-1.005-1.476,4.116,4.116,0,0,0-1.876-2.2c-.126-.058-.291-.25-.278-.361.174-1.427-1.072-2.139-1.665-3.142-1.049-1.775-2.5-3.309-3.613-5.052-1.093-1.71-1.954-3.566-2.956-5.335-.827-1.458-1.715-2.881-2.571-4.322-.724-1.219-1.426-2.451-2.166-3.66-.538-.878-1.169-1.7-1.671-2.6-.468-.835-1.263-1.365-1.672-2.31-.979-2.263-2.314-4.371-3.334-6.619a9.335,9.335,0,0,1-1.164-5.276,6.314,6.314,0,0,1,4.873,2.364c.516.69.909.888,1.327.807.428.72.761,1.322,1.136,1.9a13.944,13.944,0,0,0,.922,1.212c.524.635.442,1.871,1.761,1.679C110.029,24.309,112.42,27.458,113.706,27.953Zm72.511,64.464c.172.139.362.214.394.331.344,1.251-1.506,3.7-2.793,3.741-1.042.03-2.088.162-3.125.109q-4.429-.223-8.849-.588c-.434-.036-.837-.442-1.25-.673,2.669,0,5.222.049,7.773-.022a19.382,19.382,0,0,0,3.49-.489c.5-.107.912-.669,1.4-.738A4.511,4.511,0,0,0,186.217,92.417ZM79.615,88.3c-1.726.369-3.813-1.16-4.261-3.2.839.567,1.492,1.374,2.148,1.377C78.916,86.483,78.547,88.019,79.615,88.3Zm43.96,10.018.144.946-.186.045-.877-1.78a10.861,10.861,0,0,1,2.885-.376c.3.037.471,1.182.668,1.73l-2.125.632c.033-.638,1.126-.918.658-1.854Zm54.041,1-.141.366c-2.825-.78-5.888-.655-8.686-2.321ZM13.384,95.119l.451,1.2h-1.9L12,97.1c-1.407-.09-.712-1.064-.884-1.619ZM50.8,49.676c1.01-.654,1.01-.654,2.189,1.766C51.556,51.7,51.418,50.389,50.8,49.676ZM158.493,4.567c-.651-.171-1.225-.309-1.791-.477a4.465,4.465,0,0,1-.628-.293c.214-.2.5-.611.632-.567C157.394,3.45,158.406,3.266,158.493,4.567ZM112.379,45.088c1.7.8,2.414,1.97,1.788,2.713ZM67.37,76.681l-2.443-2.107C67.613,76.107,67.613,76.107,67.37,76.681Zm72.162-13.917a8.059,8.059,0,0,1,1.357,1.17c.156.216.025.661-.035.991-.01.056-.453.114-.468.077C140.1,64.309,139.843,63.6,139.532,62.764Zm-30.375,33q.005.143.011.285l-1.18-1.109,3.336.255q-.006.149-.011.3ZM76.354,105.8c.113-.22.284-.722.376-.708.8.121,1.582.335,2.37.521l-.087.322ZM74.3,81.358l-.2.282L70.95,79.432l.233-.334Zm99.876-45.222-.261.323-2.071-1.836C173.6,34.092,173.219,35.921,174.174,36.136ZM9.48,96.409c-.43-1.467.693-.875,1.344-.948v1.124ZM216.35,37.374c1.78,1.055,2.08,3.148,3.15,4.628a.935.935,0,0,0,.25.786c.611.522,1.571.814,1.117,1.941,1.254.6,2.974,3.362,2.764,3.891.615.479,1.151.9,1.688,1.313.965.748,1.207,2.022,2.145,2.837.756.657,1.079,1.952,1.9,2.367,1.466.745.994,1.9,1.006,2.92.052,4.316.022,8.632.022,12.948v3.211a14.739,14.739,0,0,1-2-1.332c-1.463-1.362-2.863-2.792-4.261-4.222-.131-.134-.069-.457-.1-.692.232-.016.465-.049.7-.041.249.008.5.054.7.078-.164-.437-.224-.823-.331-.836-.249-.031-.517.139-.785.186-.452.079-1.056.335-1.334.141a8.617,8.617,0,0,1-1.591-1.667c-1.171-1.423-2.339-2.85-3.457-4.314-.589-.771-1.07-1.624-1.748-2.666l-.989-.984.645-.89h-1.026l-.585-1.46c-.688.555-.563-.044-.663-.432a4.5,4.5,0,0,0-.56-.922l1.778.241c-.526-1.923-2.032-2.485-3.857-2.59l.562-1.327c-1.064.363-1.043.358-1.272-.585a2.106,2.106,0,0,0-.454-.8,17.738,17.738,0,0,1-1.587-1.834c-1.062-1.713-2.06-3.467-3.023-5.238q-1.4-2.583-2.67-5.238c-.314-.654-.378-1.426-.679-2.089-.613-1.348-1.36-2.636-1.95-3.993a7.339,7.339,0,0,1-.5-2.168,16.98,16.98,0,0,1,.124-1.788,4.754,4.754,0,0,0-.193-1.111c-.08-.336-.2-.662-.339-1.126l.4-.835c-.406-.521-.939-.894-.957-1.29a20.779,20.779,0,0,1,.274-2.69,15.051,15.051,0,0,0,.033-1.875c-.041-1.047-.413-2.179-.13-3.12a10.457,10.457,0,0,1,3.9-5.6,3.864,3.864,0,0,0,1.556-2.1,7.632,7.632,0,0,1,6.5-5.67,12.8,12.8,0,0,1,3.931.249A23.393,23.393,0,0,1,224.6,6.55a33.324,33.324,0,0,1,4.186,4.124,4.825,4.825,0,0,1,1.669,3.591c-.154,5.9-.061,11.8-.061,17.7V33.7c-2.311-3.1-4.027-6.253-6.53-8.826-2.041-2.1-4.006-4.272-6.085-6.331a13.685,13.685,0,0,0-2.76-2.008c-.634-.37-1.515-.937-2.142-.175a9.35,9.35,0,0,0-2.006,3.249c-1.088,4.1.417,7.761,2.269,11.327a9.443,9.443,0,0,1,.493,1.924C214.788,33.235,216.786,36.361,216.35,37.374Zm2.675,48.519a64.155,64.155,0,0,1,6.384,2.623c.243.113.363.49.713.992L221.4,87.784l-.68-.056ZM.264,90.627a20.96,20.96,0,0,1,5.5,2.58l-2.509-.532.035,0C1.473,92.159.172,91.292.264,90.627ZM71,22.879c.36.275.732.416.826.663a4.751,4.751,0,0,1,.134,1.261c-.768-.217-.464.384-.534.7l.035-.042c.007-.855-1.1-1.2-.972-2.11l.264-.263Zm77.035,17.9,1.523,1.429-.1.308c-.466-.094-1.073-.043-1.359-.322s-.255-.888-.362-1.352Zm24.833,64.4-.038-.333,1.756-.468,1.191.478ZM146.377,36.96c-.485-.165-1.165-.2-1.391-.536-.174-.26.222-.9.389-1.455.736.834.806,1.041.5,1.275l.618.467ZM230.227,91.3c-.929.019-1.6-.376-2.051-1.66l2.289,1.2ZM150.536,45.5a4.827,4.827,0,0,1-1.5-2.42c1.025.542,1.325,1.041,1.476,2.452Z" transform="translate(0)" fill="#00500a"/></g><g transform="translate(230.464 0)"><path d="M58.688,9.138c.265-1.219-.767-1.351-1.456-1.478a5.857,5.857,0,0,1-2.948-1.712c-.845-.778-1.809-1.428-2.775-2.176l-.484.718c-.115-.028-.212-.021-.245-.063-1.032-1.338-2.706-1.578-4.106-2.118A6.057,6.057,0,0,0,42.25,2.03a13.261,13.261,0,0,0-4.93,3.1,9.4,9.4,0,0,0-1.645,2.1c-.822,1.488-1.481,3.065-2.271,4.573-.893,1.7-.668,3.635-1.156,5.433-.345,1.27.123,2.744.1,4.125-.012.646-.444,1.279-.49,1.931-.1,1.486-.114,2.981-.1,4.471a10.249,10.249,0,0,0,.256,2.282c.094.391.621.686.694,1.073a11.651,11.651,0,0,1-.117,1.552,5.459,5.459,0,0,0,.467,1.984c-.613-1.117.267-.91.947-.99l-.654,1.466.328.117-.4,1.192c.836.007,1.885,1.542,1.737,2.3a1.38,1.38,0,0,0,.05.872A19.6,19.6,0,0,1,37,44.689a12.19,12.19,0,0,0,.871,1.923,4.311,4.311,0,0,0,.149,1.772c.662,1.264,1.566,2.4,2.31,3.624.363.6.554,1.3.885,1.919.475.892,1.008,1.752,1.511,2.628.182.317.34.647.524.962a40.275,40.275,0,0,0,2.128,3.565c1.644,2.24,3.3,4.487,5.131,6.571a81.784,81.784,0,0,0,11.516,11c2.682,2.06,5.221,4.307,7.889,6.389,1.119.873,2.425,1.5,3.605,2.3.7.471,1.287,1.1,1.973,1.584a8.973,8.973,0,0,0,1.958,1.145c1.616.609,1.808,1.363.951,2.825a10.175,10.175,0,0,1-2.963,3.131c-.166.12-.626.151-.68.061-.88-1.472-2.47-1.347-3.817-1.681q-6.263-1.553-12.56-2.975a53.693,53.693,0,0,1-8.664-3.3c-4.271-1.786-8.411-3.885-12.6-5.864-2.485-1.174-4.941-2.412-7.445-3.544a2.928,2.928,0,0,1-1.75-2.743,42.266,42.266,0,0,0-.685-4.189c-.488-2.454-.947-4.919-1.562-7.343-.623-2.457-1.414-4.872-2.147-7.3-.149-.493-.433-.95-.548-1.449a39.031,39.031,0,0,1-.785-3.974,4.926,4.926,0,0,0-1.464-3c.443-1.03-.986-4.456-2.387-5.523l.89-.445c-.72-.559-.5-1.756-1.689-2.128-.332-.1-.29-1.407-.428-2.207l-1.216-.168a12.873,12.873,0,0,0,.769-1.4c.025-.06-.4-.311-.562-.429a13.9,13.9,0,0,0-.685-2.641c-1.08-2.285-2.2-4.56-3.476-6.741-.776-1.329-2.092-2.372-2.72-3.746A10.182,10.182,0,0,0,7.9,21.385a4.5,4.5,0,0,0-.634-.594c-1.7-3.318-4.556-5.628-7.114-8.267-.024.384-.071.784-.071,1.184q-.006,9.383,0,18.767a3.365,3.365,0,0,0,1.041,2.542,6.658,6.658,0,0,1,.812,1.614,13.735,13.735,0,0,0,1.835,3.146c.54.559.162,1.168.594,1.652a7.971,7.971,0,0,1,1.22,1.9c.32.679.414,1.465.741,2.139.374.769,1.421,1.638,1.249,2.158-.394,1.191,1.224,1.572.741,2.718-.152.36.51,1.062.864,1.729a2.488,2.488,0,0,0,.016.913q1.144,3.321,2.378,6.611c.116.309.492.513.655.816a3.212,3.212,0,0,1,.119.781c.2.9.423,1.789.628,2.684.309,1.348.611,2.7.944,4.17-3.341-1.257-5.1-4.391-7.763-5.668l-6-6.242c-.032.566-.074.974-.074,1.382,0,4.434,0,8.869-.009,13.3,0,.865.4,1.692.035,2.606-.423,1.062.477,1.736,1.131,2.242Q6.657,79.864,12.2,83.9c1.45,1.055,3.1,1.841,4.531,2.917a2.17,2.17,0,0,1,.569,1.833c-.111.536-.381.809.125,1.354.482.519-.726,2.235-1.564,2.53a16.447,16.447,0,0,1-5.827.936,1.931,1.931,0,0,0-.814.336c-1.094-.052-2.088-.053-3.07-.159a26.422,26.422,0,0,1-2.711-.491c-.09-.019-.12-.311-.182-.475l.035,0a10.319,10.319,0,0,1-1.578-.126,9.677,9.677,0,0,1-1.464-.594,3.437,3.437,0,0,0-.156.656c-.009,3.483-.018,6.966,0,10.45,0,.945,1.034,1.515,2.154,1.173a1.307,1.307,0,0,1,1.046.114,10.453,10.453,0,0,0,2.562.456,23.652,23.652,0,0,0,2.533.313c1.679.054,3.361.017,5.042.043a7.343,7.343,0,0,1,1.195.259H17.29l-.443-.174c.1-.385,1.945-.4,2.241-.063.044.051.136.06.286.122.708-1.071,1.714-1.211,2.994-1.2.875,0,1.8-.785,2.621-1.347A11.242,11.242,0,0,0,29.32,96.9a8.29,8.29,0,0,0,.175-1.74c.117-1.113.659-1.391,1.709-.955a7.081,7.081,0,0,0,1.321.266,5.024,5.024,0,0,0,1.267.926c1.845.666,3.6,1.513,5.388,2.31,1.133.506,2.425.648,3.606,1.065.735.26,1.377.774,2.1,1.1,1.541.689,3.113,1.307,4.654,1.995a3.016,3.016,0,0,0,2.058.018c1.408-.313,2.757.348,4.07.869.715.284,1.435.557,2.267.88l-.594.992c1.782.259,3.336,1.359,5.324,1.154l.117.755.474-1.108c.378,1.292.664,1.346,2.1.325.3,1.181,1.252,1.129,2.181,1.2,2.363.173,4.733.309,7.083.6,4.031.492,7.721-.219,10.584-3.234A9.951,9.951,0,0,0,88.3,98.3c.149-1.831,1.317-2.458,2.8-1.484.713.47,1.547.512,2.262,1.275.841.9,2.416,1.106,3.741,1.641-.455,1.273.6,1.189,1.338,1.43.475.155.93.374,1.582.641l.146-.109c.735.4.577,1.689,1.852,1.308.063-.019.2.461.382.553,1.392.7,2.8,1.368,4.209,2.04.225.108.571.128.674.3a1.233,1.233,0,0,0,1.785.577c.166-.074.445.106.672.169l-.2.668c2.289.591,4.214,2.486,6.883,1.9a8.155,8.155,0,0,0,.255.968.51.51,0,0,0,.354.262c.077.01.162-.237.277-.281.405-.156.825-.275.968-.321.306.48.451,1,.71,1.068a49.4,49.4,0,0,0,6.738,1.265l-.42-.555,2.069.938-.069-.417c.264-.2.544-.583.787-.56a3.052,3.052,0,0,1,1.2.532c.172.1.349.517.371.505,2.089-1.119,4.518-.713,6.652-1.449,1.826-.63,3.676-1.446,4.775-3.259.579-.954,1.6-1.242,2.527-1.751a7.748,7.748,0,0,0,4.225-6.461c.153-1.788.584-3.553.889-5.328.037-.218.065-.437.128-.858a5.378,5.378,0,0,1,1.209.624c.87.791,2.068,1.093,2.795,2.178.334.5,1.189.741,1.438,1.488a.132.132,0,0,0,.1.065c.612.066,1.224.127,1.543.16l.859,1.679.323-.148-.6-1.181.191-.326a112.906,112.906,0,0,1,10.935,4.825c0,.019-.009-.175-.018-.368a2.916,2.916,0,0,0,.415.351,3.2,3.2,0,0,0,1.033.515c1.521.21,3.055.328,4.577.535a3.21,3.21,0,0,1,.936.481l1.191.478c-.087.608.258.865.748.647a2.743,2.743,0,0,1,2.537-.119.951.951,0,0,0,.527.033,31.979,31.979,0,0,1,5.872-.743c2.243.119,4.2-.816,6.314-1.083a4.881,4.881,0,0,0,1.948-.852,38.171,38.171,0,0,0,3.744-2.714,6.7,6.7,0,0,0,1.957-2.362c.488-1.213,1.43-2.072,1.7-3.295.162-.489.328-.976.484-1.467.5-1.565.81-1.537,2.3-.64,2.447,1.477,5.009,2.765,7.533,4.113.191.1.574.155.687.045.891-.864,1.534-.009,1.824.481.374.629.476.936,1.257.508.344-.188.951.1,1.474.183l-.628.356a6.037,6.037,0,0,1,.968.5c.425.336,1.316-.036,1.358.89,0,.066.219.2.284.174,1.034-.425,1.4.639,2.1.927,2.041.833,4.035,1.968,6.16,2.339,1.175.206,2.138.881,3.46,1.031v-1.7c0-3.006-.043-6.013.026-9.018a1.438,1.438,0,0,0-1.074-1.58,17.193,17.193,0,0,1-3.857-1.465c-1.307-.9-3.118-.837-4.087-2.272l-.68-.056a3.9,3.9,0,0,1-2.834-1.761h.892c-.954-1.264-2.743-1.93-3.354-1.561-.47-.187-.752-.282-1.018-.41a9.93,9.93,0,0,1-.916-.5,31.682,31.682,0,0,1-4.724-3c-1.885-1.7-4.274-2.788-5.8-4.876a2.268,2.268,0,0,1-.207-1.191,26.219,26.219,0,0,0-1.14-7.468,46.58,46.58,0,0,1-.941-4.6c-.211-.973-.5-1.929-.765-2.89-.3-1.094-.552-2.2-.912-3.276-.581-1.735-1.251-3.44-1.844-5.172-.295-.862-.418-1.789-.765-2.627-.543-1.31-1.206-2.571-1.825-3.85-.492-1.017-.96-2.049-1.5-3.04-.6-1.1-1.275-2.168-1.921-3.247-.746-1.247-1.521-2.477-2.235-3.742-.755-1.338-1.458-2.707-2.176-4.066-.5-.938-.971-1.885-1.471-2.82-.1-.186-.246-.453-.407-.482-.793-.141-.722-.793-.935-1.332-.35-.886-.414-2.1-1.971-2.031l.293-.676c-.231-.309-1.309-.264-.594-1.176.03-.038-.065-.227-.146-.29-1.54-1.2-1.876-3.208-3.105-4.6-.523-.594-.592-1.611-1.68-1.746-.257-.032-.439-.662-.777-.892a2.861,2.861,0,0,1-.553-.619c-.115-.241,0-.626-.15-.809a23.11,23.11,0,0,0-1.8-1.918c-.158-.152-.476-.13-.713-.209-.149-.05-.4-.13-.408-.212-.14-1.78-1.808-2.352-2.811-3.385a26.633,26.633,0,0,0-4.353-3.359A23.653,23.653,0,0,0,160.055.912a10.017,10.017,0,0,0-5.949-.7c-1.264.313-1.348,1.447-2.436,1.706l.859.418-.16.389L151.2,2.237a5.19,5.19,0,0,0-.955,1.031A7.327,7.327,0,0,0,149.4,5.43c-.274,1.646-1.4,2.04-2.792,2.173a1.063,1.063,0,0,0-.544.244c-.571.479-1.317.881-1.64,1.5-.794,1.516-1.935,2.838-2.145,4.709-.089.793.162,2.089-1.036,2.612-.1.044-.163.38-.114.542a3.33,3.33,0,0,1-.353,2.669l1.559.73-.065.259-1.1.115c.536.466,1.13.739,1.289,1.171a14.834,14.834,0,0,1,.53,2.65c.208,1.23.409,2.462.59,3.7.077.521.095,1.05.152,1.72l-1.059.619,1.939,2.319-1.045.373c.317.327.541.771.831.82a2.323,2.323,0,0,1,2.219,1.75,31.79,31.79,0,0,0,2.257,3.809c.081.128.444.077.344.063a10.2,10.2,0,0,0,.576,1.375c.714,1.146,1.468,2.267,2.208,3.4.1.151.194.307.306.447.227.283.465.556.7.834l-.216.276.815.147-.249,1.5c-1-.063-1.5-.568-1.567-1.353-.078-.863-.581-1.039-1.282-1.06l.026-.029a9.868,9.868,0,0,0,2.088,3.135c.5.492.459,1.489,1.211,1.941.021.013-.064.2-.1.312,1.5.408,1.341,2.117,2.338,2.964a29,29,0,0,1,2.821,2.943c.893,1.008,1.674,2.116,2.593,3.1,1.6,1.715,3.229,3.416,4.938,5.024a23.968,23.968,0,0,0,2.869,2.008c-.319,1.044.94,1.275,1.519,1.877a46.586,46.586,0,0,0,3.6,3.158c1.5,1.27,3.011,2.536,4.544,3.77a2.257,2.257,0,0,0,.857.244,21.15,21.15,0,0,0,1.486,1.627,10.272,10.272,0,0,0,1.733,1.244,10.839,10.839,0,0,0,1.681.594c.742.728,1.786,1.765,2.846,2.787.552.532.963,1,.549,1.9a7.206,7.206,0,0,0-.2,1.938c-.118.841-.26,1.682-.453,2.509-.2.862-.473,1.707-.631,2.268a6.079,6.079,0,0,0-1.834.448c-.844.566-1.541,1.346-2.365,1.948-.25.183-.714.085-1.081.1-.684.023-1.37.022-2.054.051a52.1,52.1,0,0,1-5.644.216,20.474,20.474,0,0,1-5.654-1.04c-1.152-.423-2.491-.266-3.525-1.208-.525-.478-1.467-.473-2.181-.777a30.285,30.285,0,0,1-2.971-1.436c-1.437-.808-2.843-1.672-4.24-2.549a9.159,9.159,0,0,0-2.058-1.216c-.645-.211-1.072-1.09-1.491-1.555l.074.4-.252.1-.373-1a10.634,10.634,0,0,1-2.413-1.186,7.672,7.672,0,0,1-2.771-3.916c-.858-3.261-1.969-6.457-3.035-9.66-.8-2.39-1.683-4.75-2.537-7.121-.391-1.084-.849-2.146-1.185-3.247-.233-.765-.6-1.023-1.378-.592.943-2.585-.8-4.35-1.659-6.352q.146.478.291.956l-.155.295c-.333-.185-.967-.421-.946-.546.083-.492-.994-1.136.092-1.548l.45,1.594.279-.75c-.142-.487-.255-.985-.434-1.458a10.907,10.907,0,0,0-.9-2.053c-.264-.411-.457-1.056-1.257-.94-.264.038-.594-.38-.894-.59l.128-.306,1.591.439c-1-1.657-2.24-2.993-2.63-4.543a20.378,20.378,0,0,0-2.263-4.577c-.776-1.467-1.255-3.208-2.95-4.174.419-.736.082-1.263-.646-1.779-.329-.234-.363-.855-.59-1.268-.543-.989-1.077-1.988-1.705-2.923-.28-.417-.518-1.155-1.347-.741-.093.046-.336-.209-.13-.391.03-.333.216-.788.066-.982-2.756-3.557-5.519-7.109-8.361-10.6a31.547,31.547,0,0,0-2.73-2.539,33.3,33.3,0,0,0-3.908-3.767c-1.529-1.048-3.059-2.369-5.216-2.122a1.586,1.586,0,0,1-1.844-.819c-.185-.373-1.1-.385-1.826-.6l-.464.346-4.388-1.2-.251.377,1.145,1.529a16.039,16.039,0,0,1-2.491,1.046c-.888.221-1.266.912-.694,1.949l-1.307-.585.562,1.4-.863.5-.108-1.04-.782,1.436a5.965,5.965,0,0,1,.818.475.622.622,0,0,1,.18.461.406.406,0,0,1-.321.236c-1.891-.387-.957,1.359-1.439,2.018-.334.456,0,1.349-.162,2-.246.962-.094,1.6.668,1.743-.194.382-.536.739-.5,1.059.074.73.37,1.434.5,2.162.184,1,.206,2.039.467,3.015.754,2.819,1.587,5.617,2.4,8.419.323,1.109.682,2.208,1.075,3.471l.709-.654c-.131,2.442,1.691,3.941,2.641,5.817,1,1.979,2.3,3.807,3.443,5.716.888,1.485,1.682,3.028,2.612,4.486q3.577,5.6,7.25,11.146a15.877,15.877,0,0,0,1.8,2.146c.706.739,1.852,1.282,2.15,2.139.668,1.921,2.589,2.806,3.356,4.584.169.393.622.665.948.989.58.577,1.168,1.145,1.743,1.726,1.25,1.264,2.47,2.56,3.747,3.8,1.346,1.3,2.7,2.6,4.131,3.814a51.113,51.113,0,0,0,5.1,4c1.711,1.111,2.419,2.769,3.178,4.476.322.723.715,1.416,1.111,2.192a17.14,17.14,0,0,1-6.049,2.422c-.193.037-.334.34-.359.367-1.628-.036-3.46-.531-4.9.01-1.681.629-2.847-.417-4.267-.481a33.7,33.7,0,0,1-7.043-1.241c-2.525-.67-4.984-1.606-7.448-2.49-1.506-.54-2.958-1.232-4.458-1.789a2.7,2.7,0,0,0-1.049-.021,4.162,4.162,0,0,0-.8-.7c-2.493-1.14-5-2.255-7.5-3.372-.659-.294-1.048-.653-.573-1.425a1.013,1.013,0,0,0-.166-1.407,1.255,1.255,0,0,1-.3-.679c-.358-2.065-.806-4.123-1-6.2-.113-1.214-1.2-2.363-.312-3.655-.754-.47.445-1.757-.848-2.038-.1-.022-.232-.522-.146-.7.517-1.088-.153-1.677-.773-2.275V64.343l-.843-.455c.2-.447.6-.909.507-1.213-.132-.416-.641-.713-.989-1.062l-.332.137.372-1.569a14.162,14.162,0,0,1-1.247-.844c-.09-.072.028-.4.05-.617l.716.2.212-.163-1.93-2.348.876-.249-.549-1.446-.791.736a4.32,4.32,0,0,1-.237-.681c.7-.374.5-.854.457-1.519-.052-.8-.174-1.256-.961-1.543l.633-.16L83.1,49.334a14.255,14.255,0,0,0-.334-2.935,71.132,71.132,0,0,0-2.584-7.165c-1.328-3.039-2.833-6-4.345-8.958-.63-1.23-1.508-2.331-2.212-3.526-.51-.865-1.519-.744-2.2-1.25l.035-.042.213.625-.269.243a6.068,6.068,0,0,1-.667-.694,25.523,25.523,0,0,0-1.969-2.81,1.128,1.128,0,0,1-.26-1.561l-1.623-.387,1.61-.654c.148.952,1.2,1.363,1.286,2.386.022.265.46.5.707.742l.264-.263a17.081,17.081,0,0,1-1.169-1.848c-.815-1.724-1.415-3.482-2.969-4.851a49.8,49.8,0,0,1-4.4-5.042c-.415-.48-.883-.862-1.188-.209l2,1.928-.35.389-2.73-1.966.449-.158-1.427-.816h1.838c-.178-.684-.371-1.427-1.541-1.058-.154.049-.411-.226-.621-.352-.056.378-.111.758-.183,1.264L56.8,8.928l.79-.88.124,1.089Zm6.6,7.506,1.294,1.094-1.069.892c-.348-.4-.725-.818-1.055-1.266-.036-.049.2-.3.311-.456-.149-.193-.26-.481-.455-.559a5.176,5.176,0,0,0-1.095-.2l.032-.276.8-.085-.192-1.456C64.792,15.08,65.459,15.61,65.286,16.644Zm59.851,45.19c.912.368.939.8.033,1.689l-.227-.668c-.886.688-1.282.437-1.738-.918l1.388-.144.379-.677-2.725.313.333-1.062-.278.1-.46-1-.667.172-1.264-1.4.493-.583-.744-1.052-2.269-1.854,1.9-.292-2.509-1.406.662-1.557c.4,1.729,2.665,1.864,2.226,3.8-.013.059.276.216.443.282.379.15.769.272,1.22.428l-1.085.935,1.277-.246c.564.879,1.3,1.743.284,2.8.741.1,1.7-.078,1.554,1.161C124.679,59.878,125.119,60.151,125.138,61.834ZM71.419,82.747l1.688.64L73,83.681h-.491c1.588-.2,1.975.875,2.351,2.063-1.673-.237-2.7-1.407-3.874-2.322l-2.141-1.609c-3.257-1.9-5.907-4.741-8.976-7.648a3.883,3.883,0,0,1,1.155.235c.565.389,1.076.858,1.607,1.3,1.81,1.491,3.614,2.99,5.434,4.47.48.39.5,1.292,1.622,1.04C70.125,81.106,70.833,82.2,71.419,82.747ZM54.8,53.021l.427,1.419-.207.144-1.806-1.679.258-.333,1.363.484c-.682-1.249-1.373-2.493-2.045-3.747-1.083-2.023-2.192-4.033-3.219-6.084-.892-1.782-1.71-3.6-2.518-5.425a39.85,39.85,0,0,1-2.163-5.211,28.355,28.355,0,0,1-1.513-9.436c.02-.324-.284-.7-.2-.983.414-1.358.857-2.713,1.4-4.023.227-.549.652-1.295,1.121-1.41a4.028,4.028,0,0,1,3.392,1.1,20.033,20.033,0,0,1,2.629,2.527c1.146,1.292,2.2,2.664,3.289,4.007.119.148.164.461.286.486,1.373.279,1.354,1.9,2.433,2.5.351.2.339.968.593,1.421.948,1.688,1.932,3.356,2.915,5.024.286.484.615.942.835,1.275.348-.175.67-.4.716-.35a11.029,11.029,0,0,1,.839,1.063l-1.234.57a8.418,8.418,0,0,1,.976.566,1.936,1.936,0,0,1,.611.678,12.212,12.212,0,0,1,.419,1.558l.889-.577.358.867c-.586-.032-1.065-.213-.768.749.21.68.663.678,1.078.894a2.551,2.551,0,0,0,.493.144c-.186.08-.377.151-.555.246-.1.052-.173.146-.131.109.547.553,1.29,1.007,1.566,1.659.347.819.185,1.842.467,2.7.776,2.361,1.663,4.685,2.528,7.016.1.278.41.483.509.761.291.815.483,1.667.791,2.474.373.975.924,1.889,1.222,2.882.576,1.918.94,3.9,1.555,5.806.81,2.51,1.792,4.964,2.667,7.454a21.84,21.84,0,0,1,.745,2.672c.054.254-.177.568-.25.778L75.2,74.624l.138-.121L71.792,71.75c.2-1.3-.949-.41-1.4-.424.086-.478.375-1.135.2-1.292a26.785,26.785,0,0,0-2.519-1.877c-.089-.21-.131-.61-.337-.73a9.233,9.233,0,0,0-1.508-.584q.034.422.068.844c-.845-.841-2.347-1.022-2.245-2.524-.629-.376-1.286-.714-1.872-1.147-.234-.172-.274-.771-.468-.806-1.164-.209-1.363-1.474-2.324-2-.743-.41-1.01-1.685-1.638-2.854l1.589.57c-.83-1.242-1.6-2.5-2.476-3.665A28.264,28.264,0,0,0,54.8,53.021Zm116.909-19.9-.941.091a2.488,2.488,0,0,0,.176.775,12.908,12.908,0,0,0,1.393,2.028,10.541,10.541,0,0,0,1.674,1.238c-.6,1.012,1.156,4.283,2.717,4.916-.05.257-.2.535-.122.7.556,1.18,1.166,2.334,1.747,3.5a19.4,19.4,0,0,1,1.568,3.328c.262.953.821,2.422,1.613,2.9.084.05.133.159.243.3l-.618.234c.452,1.574.847,3.1,1.335,4.6a25.545,25.545,0,0,0,1.088,2.44,4.417,4.417,0,0,1-1.3-.526c-1.268-1.047-2.474-2.17-3.7-3.269-.8-.717-1.638-1.395-2.374-2.172-2.8-2.957-5.55-5.961-8.354-8.913a18.622,18.622,0,0,0-1.868-1.466c-.642-.521-.655-1.39-1.028-2a29.33,29.33,0,0,0-2.426-2.671C161.3,37.6,160.144,36,159.005,34.379a5.89,5.89,0,0,1-.531-1.4l-1.145-1.537c-.222-.357-.638-.636-.782-1.017a27.762,27.762,0,0,1-1.44-4.387,23.272,23.272,0,0,1-.225-4.293c-.008-1.463,1.036-2.514,1.664-3.717.1-.2.784-.279,1.08-.148a6.231,6.231,0,0,1,1.183.96,17.308,17.308,0,0,1,1.961,1.56c.684.736,1.178,1.645,1.83,2.416,1.038,1.228,2.161,2.385,3.205,3.608.937,1.1,1.857,1.144,2.791.048l.682,1.117-1.662.769,1.192.452-.319.167c.326.724.469,1.807,1.022,2.09.856.438,1.006.756.533,1.592a3.711,3.711,0,0,0,.73-.887c.173-.264.351-.524.527-.785l.529.082C170.588,31.833,171.54,32.415,171.711,33.118Zm-58.005-5.165c-.056.4-.259.832-.124,1.061.808,1.364,1.673,2.7,2.563,4.009.425.627,1.348,1.189,1.348,1.78,0,1.626,1.1,2.563,1.831,3.741q.207.333.392.679c.6,1.12,1.192,2.242,1.727,3.249a5.193,5.193,0,0,0,.265,1.315c.679,1.356,1.425,2.679,2.18,4.079,1.246-.29,1.121.914,1.509,1.807l-.982-.592-.184.226,1.061.937-.246.092,2.215,4.986,1.152.175-.812.6,1.182.578-.335,1.063.757-.22c0,.462.02.817-.006,1.167a4.054,4.054,0,0,0-.131,1.144,32.111,32.111,0,0,0,.978,3.233,4,4,0,0,0,.74.963.921.921,0,0,1-1.027-.065c-.639-.732-1.265-1.825-1.9-2.143-1.213-.6-.966-2.1-2.173-2.6-.54-.222-.823-1.07-1.22-1.635a11.448,11.448,0,0,1-1.005-1.476,4.116,4.116,0,0,0-1.876-2.2c-.126-.058-.291-.25-.278-.361.174-1.427-1.072-2.139-1.665-3.142-1.049-1.775-2.5-3.309-3.613-5.052-1.093-1.71-1.954-3.566-2.956-5.335-.827-1.458-1.715-2.881-2.571-4.322-.724-1.219-1.426-2.451-2.166-3.66-.538-.878-1.169-1.7-1.671-2.6-.468-.835-1.263-1.365-1.672-2.31-.979-2.263-2.314-4.371-3.334-6.619a9.335,9.335,0,0,1-1.164-5.276,6.314,6.314,0,0,1,4.873,2.364c.516.69.909.888,1.327.807.428.72.761,1.322,1.136,1.9a13.944,13.944,0,0,0,.922,1.212c.524.635.442,1.871,1.761,1.679C110.029,24.309,112.42,27.458,113.706,27.953Zm72.511,64.464c.172.139.362.214.394.331.344,1.251-1.506,3.7-2.793,3.741-1.042.03-2.088.162-3.125.109q-4.429-.223-8.849-.588c-.434-.036-.837-.442-1.25-.673,2.669,0,5.222.049,7.773-.022a19.382,19.382,0,0,0,3.49-.489c.5-.107.912-.669,1.4-.738A4.511,4.511,0,0,0,186.217,92.417ZM79.615,88.3c-1.726.369-3.813-1.16-4.261-3.2.839.567,1.492,1.374,2.148,1.377C78.916,86.483,78.547,88.019,79.615,88.3Zm43.96,10.018.144.946-.186.045-.877-1.78a10.861,10.861,0,0,1,2.885-.376c.3.037.471,1.182.668,1.73l-2.125.632c.033-.638,1.126-.918.658-1.854Zm54.041,1-.141.366c-2.825-.78-5.888-.655-8.686-2.321ZM13.384,95.119l.451,1.2h-1.9L12,97.1c-1.407-.09-.712-1.064-.884-1.619ZM50.8,49.676c1.01-.654,1.01-.654,2.189,1.766C51.556,51.7,51.418,50.389,50.8,49.676ZM158.493,4.567c-.651-.171-1.225-.309-1.791-.477a4.465,4.465,0,0,1-.628-.293c.214-.2.5-.611.632-.567C157.394,3.45,158.406,3.266,158.493,4.567ZM112.379,45.088c1.7.8,2.414,1.97,1.788,2.713ZM67.37,76.681l-2.443-2.107C67.613,76.107,67.613,76.107,67.37,76.681Zm72.162-13.917a8.059,8.059,0,0,1,1.357,1.17c.156.216.025.661-.035.991-.01.056-.453.114-.468.077C140.1,64.309,139.843,63.6,139.532,62.764Zm-30.375,33q.005.143.011.285l-1.18-1.109,3.336.255q-.006.149-.011.3ZM76.354,105.8c.113-.22.284-.722.376-.708.8.121,1.582.335,2.37.521l-.087.322ZM74.3,81.358l-.2.282L70.95,79.432l.233-.334Zm99.876-45.222-.261.323-2.071-1.836C173.6,34.092,173.219,35.921,174.174,36.136ZM9.48,96.409c-.43-1.467.693-.875,1.344-.948v1.124ZM216.35,37.374c1.78,1.055,2.08,3.148,3.15,4.628a.935.935,0,0,0,.25.786c.611.522,1.571.814,1.117,1.941,1.254.6,2.974,3.362,2.764,3.891.615.479,1.151.9,1.688,1.313.965.748,1.207,2.022,2.145,2.837.756.657,1.079,1.952,1.9,2.367,1.466.745.994,1.9,1.006,2.92.052,4.316.022,8.632.022,12.948v3.211a14.739,14.739,0,0,1-2-1.332c-1.463-1.362-2.863-2.792-4.261-4.222-.131-.134-.069-.457-.1-.692.232-.016.465-.049.7-.041.249.008.5.054.7.078-.164-.437-.224-.823-.331-.836-.249-.031-.517.139-.785.186-.452.079-1.056.335-1.334.141a8.617,8.617,0,0,1-1.591-1.667c-1.171-1.423-2.339-2.85-3.457-4.314-.589-.771-1.07-1.624-1.748-2.666l-.989-.984.645-.89h-1.026l-.585-1.46c-.688.555-.563-.044-.663-.432a4.5,4.5,0,0,0-.56-.922l1.778.241c-.526-1.923-2.032-2.485-3.857-2.59l.562-1.327c-1.064.363-1.043.358-1.272-.585a2.106,2.106,0,0,0-.454-.8,17.738,17.738,0,0,1-1.587-1.834c-1.062-1.713-2.06-3.467-3.023-5.238q-1.4-2.583-2.67-5.238c-.314-.654-.378-1.426-.679-2.089-.613-1.348-1.36-2.636-1.95-3.993a7.339,7.339,0,0,1-.5-2.168,16.98,16.98,0,0,1,.124-1.788,4.754,4.754,0,0,0-.193-1.111c-.08-.336-.2-.662-.339-1.126l.4-.835c-.406-.521-.939-.894-.957-1.29a20.779,20.779,0,0,1,.274-2.69,15.051,15.051,0,0,0,.033-1.875c-.041-1.047-.413-2.179-.13-3.12a10.457,10.457,0,0,1,3.9-5.6,3.864,3.864,0,0,0,1.556-2.1,7.632,7.632,0,0,1,6.5-5.67,12.8,12.8,0,0,1,3.931.249A23.393,23.393,0,0,1,224.6,6.55a33.324,33.324,0,0,1,4.186,4.124,4.825,4.825,0,0,1,1.669,3.591c-.154,5.9-.061,11.8-.061,17.7V33.7c-2.311-3.1-4.027-6.253-6.53-8.826-2.041-2.1-4.006-4.272-6.085-6.331a13.685,13.685,0,0,0-2.76-2.008c-.634-.37-1.515-.937-2.142-.175a9.35,9.35,0,0,0-2.006,3.249c-1.088,4.1.417,7.761,2.269,11.327a9.443,9.443,0,0,1,.493,1.924C214.788,33.235,216.786,36.361,216.35,37.374Zm2.675,48.519a64.155,64.155,0,0,1,6.384,2.623c.243.113.363.49.713.992L221.4,87.784l-.68-.056ZM.264,90.627a20.96,20.96,0,0,1,5.5,2.58l-2.509-.532.035,0C1.473,92.159.172,91.292.264,90.627ZM71,22.879c.36.275.732.416.826.663a4.751,4.751,0,0,1,.134,1.261c-.768-.217-.464.384-.534.7l.035-.042c.007-.855-1.1-1.2-.972-2.11l.264-.263Zm77.035,17.9,1.523,1.429-.1.308c-.466-.094-1.073-.043-1.359-.322s-.255-.888-.362-1.352Zm24.833,64.4-.038-.333,1.756-.468,1.191.478ZM146.377,36.96c-.485-.165-1.165-.2-1.391-.536-.174-.26.222-.9.389-1.455.736.834.806,1.041.5,1.275l.618.467ZM230.227,91.3c-.929.019-1.6-.376-2.051-1.66l2.289,1.2ZM150.536,45.5a4.827,4.827,0,0,1-1.5-2.42c1.025.542,1.325,1.041,1.476,2.452Z" transform="translate(0)" fill="#00500a"/></g></g></g></svg>