<?xml version="1.0" encoding="UTF-8"?>
<svg id="Layer_2" data-name="Layer 2" xmlns="http://www.w3.org/2000/svg" viewBox="0 0 633.56 182.17">
  <defs>
    <style>
      .cls-1 {
        fill: #fff;
      }
    </style>
  </defs>
  <g id="Layer_1-2" data-name="Layer 1">
    <g>
      <g>
        <path class="cls-1" d="M312.14,138.84l-8.89-20.49h-66.37l-8.89,20.49h-10.57l33.64-76.68c5.15-11.73,10.18-17.4,21.39-17.4,6.32,0,10.96,1.42,14.18,4.25,3.22,2.71,6.32,7.35,9.02,13.66l33.77,76.17h-17.27Zm-72.04-27.97h59.93l-19.07-44.2c-4.12-8.76-6.44-10.96-10.7-10.96-4.64,0-6.96,2.06-10.7,10.44l-19.46,44.72Z"/>
        <path class="cls-1" d="M364.46,138.84c-10.18,0-17.66-1.68-22.17-5.03-4.51-3.35-6.83-9.28-6.83-17.91V50.69h15.46v14.43h26.16v7.47h-26.16v43.43c0,6.44,1.16,10.7,3.48,12.63,2.45,1.93,6.7,2.96,13.02,2.96h9.67v7.22h-12.63Z"/>
        <path class="cls-1" d="M392.55,138.84c-3.22,0-4.9-1.68-4.9-5.03V41.15h15.34v97.69h-10.44Z"/>
        <path class="cls-1" d="M415.24,117.32c0-16.62,11.73-23.2,38.53-23.2h26.16v-3.35c0-7.35-1.16-11.47-5.67-14.69-2.19-1.67-5.67-2.83-10.18-3.35-8.89-1.16-21.65-1.29-42.79,.26v-7.86c32.35-2.32,50.78-1.16,61.22,2.83,10.31,4.64,12.89,11.99,12.76,23.97v42.66c-3.61,0-10.31,.9-20.23,2.83-9.92,1.8-18.56,2.71-25.9,2.71-22.17,0-33.89-7.73-33.89-22.81Zm61.09,11.47c2.71-1.16,3.61-2.58,3.61-5.8v-21.26h-24.87c-17.91,0-24.36,4-24.36,15.34s6.57,15.34,22.17,15.34c9.54,0,17.4-1.16,23.46-3.61Z"/>
        <path class="cls-1" d="M505.7,128.79c18.04,3.09,32.48,3.61,40.34,2.58,12.76-1.93,16.24-6.96,16.24-11.47,0-9.54-14.3-10.57-28.74-13.27-5.03-1.03-9.67-2.19-13.92-3.35-8.38-2.58-14.82-8.76-14.82-18.04,0-7.86,4-13.79,14.43-18.04,10.7-4.51,27.71-4.64,54-.9v7.35c-41.75-6.19-52.97,.64-52.97,9.54,0,9.54,14.43,10.7,28.87,13.4,5.03,1.03,9.67,2.19,13.92,3.48,8.63,2.45,14.95,8.76,14.95,18.17,.13,14.56-17.4,28.09-72.3,18.56v-7.99Z"/>
      </g>
      <g>
        <path class="cls-1" d="M221.29,165.77v8.62h-2.49v-23.16h6.2c2.48,0,4.38,.6,5.72,1.8,1.33,1.2,2,2.91,2,5.14s-.75,4.05-2.24,5.47c-1.49,1.42-3.52,2.12-6.1,2.12h-3.1Zm0-12.3v10.08h2.94c1.92,0,3.37-.45,4.38-1.36,1-.9,1.5-2.19,1.5-3.84s-.46-2.86-1.37-3.67c-.92-.81-2.3-1.21-4.17-1.21h-3.28Z"/>
        <path class="cls-1" d="M251,174.39h-2.41v-9.88c0-1.83-.34-3.19-1.01-4.08s-1.7-1.34-3.08-1.34-2.5,.53-3.46,1.57c-.96,1.05-1.44,2.45-1.44,4.21v9.53h-2.42v-24.48h2.42v10.41h.06c.65-1.1,1.44-1.92,2.38-2.47,.94-.55,2.02-.82,3.24-.82,1.89,0,3.32,.58,4.27,1.75s1.43,2.88,1.43,5.14v10.46Z"/>
        <path class="cls-1" d="M268.26,174.39h-2.41v-2.87h-.08c-.56,1.05-1.3,1.87-2.21,2.43-.92,.57-1.96,.85-3.13,.85-1.6,0-2.89-.46-3.85-1.38-.96-.92-1.45-2.12-1.45-3.59s.48-2.66,1.45-3.6c.97-.94,2.44-1.54,4.41-1.82l4.86-.68v-.44c-.02-1.45-.36-2.52-1.03-3.2-.66-.68-1.58-1.02-2.75-1.02-.92,0-1.79,.17-2.63,.52-.84,.34-1.63,.86-2.37,1.55l-1.39-1.5c.93-.87,1.93-1.52,3-1.95s2.25-.65,3.54-.65c1.99,0,3.5,.54,4.51,1.61,1.02,1.07,1.53,2.66,1.53,4.75v11Zm-2.41-7.07v-1.66l-4.25,.61c-1.41,.19-2.44,.54-3.08,1.05-.65,.51-.97,1.28-.97,2.31,0,.97,.3,1.74,.91,2.31,.61,.57,1.4,.86,2.37,.86,1.49,0,2.69-.51,3.62-1.54,.93-1.03,1.4-2.34,1.4-3.93Z"/>
        <path class="cls-1" d="M281.86,159.53c-.23-.08-.44-.13-.65-.17-.21-.04-.44-.06-.7-.06-1.39,0-2.49,.62-3.31,1.86-.82,1.24-1.23,2.85-1.23,4.82v8.4h-2.41v-16.94h2.41v3.47h.06c.39-1.22,.99-2.15,1.8-2.79,.81-.65,1.76-.97,2.85-.97,.3,0,.58,.02,.82,.05,.25,.03,.48,.08,.71,.15l-.37,2.18Z"/>
        <path class="cls-1" d="M309.25,174.39h-2.44v-9.87c0-1.95-.3-3.34-.9-4.18s-1.59-1.26-2.96-1.26c-1.22,0-2.25,.54-3.1,1.62-.85,1.08-1.28,2.39-1.28,3.96v9.74h-2.41v-10.14c0-1.71-.33-3-.99-3.87-.66-.87-1.65-1.3-2.96-1.3s-2.28,.52-3.08,1.56c-.81,1.04-1.21,2.39-1.21,4.06v9.69h-2.42v-16.94h2.42v2.73h.07c.6-1.06,1.34-1.84,2.21-2.37,.87-.52,1.88-.78,3.04-.78s2.19,.33,3.06,1c.87,.67,1.46,1.54,1.77,2.62,.6-1.18,1.38-2.08,2.33-2.7,.95-.61,2.04-.92,3.25-.92,1.86,0,3.26,.58,4.2,1.73,.94,1.15,1.4,2.88,1.4,5.18v10.45Z"/>
        <path class="cls-1" d="M326.49,174.39h-2.41v-2.87h-.08c-.56,1.05-1.3,1.87-2.21,2.43-.92,.57-1.96,.85-3.13,.85-1.6,0-2.89-.46-3.85-1.38-.96-.92-1.44-2.12-1.44-3.59s.48-2.66,1.45-3.6c.97-.94,2.44-1.54,4.41-1.82l4.86-.68v-.44c-.02-1.45-.36-2.52-1.03-3.2-.66-.68-1.58-1.02-2.75-1.02-.92,0-1.79,.17-2.63,.52-.84,.34-1.63,.86-2.37,1.55l-1.39-1.5c.93-.87,1.93-1.52,3-1.95s2.25-.65,3.54-.65c1.99,0,3.5,.54,4.51,1.61,1.02,1.07,1.53,2.66,1.53,4.75v11Zm-2.41-7.07v-1.66l-4.25,.61c-1.41,.19-2.44,.54-3.08,1.05-.65,.51-.97,1.28-.97,2.31,0,.97,.3,1.74,.91,2.31s1.4,.86,2.37,.86c1.49,0,2.69-.51,3.62-1.54,.93-1.03,1.4-2.34,1.4-3.93Z"/>
        <path class="cls-1" d="M343.67,173.36c-.8,.52-1.59,.89-2.39,1.11-.8,.22-1.65,.33-2.57,.33-2.37,0-4.3-.76-5.8-2.27-1.5-1.51-2.24-3.59-2.24-6.24s.78-4.99,2.34-6.69,3.65-2.56,6.28-2.56c.81,0,1.58,.1,2.33,.3s1.51,.51,2.29,.93l-1.02,1.81c-.61-.34-1.21-.59-1.8-.74-.59-.15-1.21-.23-1.88-.23-1.92,0-3.4,.65-4.46,1.95-1.06,1.3-1.59,2.96-1.59,4.98,0,2.13,.53,3.78,1.6,4.95s2.45,1.75,4.15,1.75c.6,0,1.21-.08,1.81-.25s1.23-.46,1.87-.86l1.08,1.74Z"/>
        <path class="cls-1" d="M360.93,157.45l-8.09,20.28c-.54,1.4-1.26,2.49-2.17,3.27-.91,.78-1.99,1.17-3.24,1.17-.33,0-.65-.02-.94-.06-.29-.04-.56-.09-.81-.17l.48-2.1c.21,.08,.4,.13,.59,.16s.38,.05,.57,.05c.71,0,1.32-.21,1.82-.61s.91-.97,1.22-1.68l1.44-3.44-6.56-16.87h2.68l4.71,13.19c.04,.15,.09,.33,.15,.55,.06,.22,.13,.47,.2,.76h.08c.04-.16,.09-.34,.15-.55,.06-.2,.13-.44,.22-.71l4.97-13.24h2.5Z"/>
        <path class="cls-1" d="M390.93,174.39l-2.78-2.79c-.89,.92-1.96,1.67-3.21,2.28s-2.67,.9-4.28,.9c-2.24,0-4.04-.58-5.41-1.74-1.37-1.16-2.05-2.76-2.05-4.82,0-1.57,.42-2.92,1.26-4.04,.84-1.12,2.05-2.08,3.62-2.85-.81-.94-1.39-1.82-1.74-2.66-.35-.83-.53-1.67-.53-2.51,0-1.65,.55-2.94,1.65-3.89,1.1-.95,2.47-1.42,4.12-1.42s2.88,.44,3.87,1.33c.98,.89,1.48,2.06,1.48,3.51,0,1.33-.37,2.45-1.11,3.36s-2.16,1.83-4.25,2.78l6.64,6.64c.7-.98,1.21-2.01,1.53-3.08,.32-1.08,.49-2.34,.5-3.78h2.26c-.01,1.6-.25,3.08-.73,4.42-.47,1.34-1.17,2.65-2.1,3.92l4.47,4.47-3.2-.02Zm-4.2-4.25l-7.3-7.38c-1.17,.55-2.1,1.24-2.79,2.08-.69,.83-1.03,1.92-1.03,3.27,0,1.43,.47,2.55,1.42,3.36,.95,.81,2.17,1.21,3.67,1.21,1.25,0,2.37-.23,3.37-.69,1-.46,1.89-1.08,2.67-1.84Zm-6.52-9.7c1.73-.69,2.91-1.37,3.53-2.05,.62-.68,.93-1.51,.93-2.49,0-1.05-.33-1.83-.98-2.34-.66-.51-1.37-.76-2.15-.76-1.06,0-1.9,.31-2.53,.94-.63,.62-.94,1.44-.94,2.44,0,.72,.18,1.42,.54,2.08,.36,.67,.9,1.39,1.61,2.18Z"/>
        <path class="cls-1" d="M430.54,174.39h-2.45v-15.71c0-.51,.02-1.11,.05-1.83,.03-.71,.09-1.51,.16-2.41h-.08c-.14,.51-.27,.94-.39,1.31s-.23,.67-.34,.9l-7.93,17.73h-1.21l-7.9-17.62c-.13-.26-.25-.58-.36-.98-.11-.39-.23-.85-.35-1.36h-.08c.05,.5,.09,1.09,.11,1.79,.02,.7,.03,1.5,.03,2.39v15.78h-2.42v-23.16h3.13l7.46,16.75c.23,.51,.42,.97,.58,1.4,.16,.43,.29,.82,.39,1.17h.1c.19-.58,.37-1.09,.54-1.53,.17-.44,.32-.81,.44-1.12l7.51-16.66h3v23.16Z"/>
        <path class="cls-1" d="M450,166.38h-12.13c.04,2.1,.57,3.68,1.57,4.75,1.01,1.07,2.39,1.61,4.14,1.61,.78,0,1.56-.12,2.36-.37,.8-.25,1.59-.65,2.39-1.19l1.15,1.7c-.96,.67-1.93,1.15-2.91,1.46s-2.06,.46-3.23,.46c-2.43,0-4.37-.75-5.8-2.24s-2.15-3.67-2.16-6.51c0-2.67,.72-4.84,2.16-6.51,1.44-1.67,3.31-2.5,5.61-2.5,2.17,0,3.86,.73,5.05,2.18,1.2,1.45,1.79,3.46,1.79,6.01v1.16Zm-2.45-1.99c-.03-1.68-.44-2.99-1.23-3.92-.79-.94-1.86-1.4-3.23-1.4s-2.53,.48-3.46,1.43c-.93,.95-1.5,2.25-1.7,3.9h9.62Z"/>
        <path class="cls-1" d="M466.11,171.45c-.6,1.09-1.41,1.92-2.41,2.49s-2.16,.86-3.49,.86c-2.12,0-3.82-.76-5.11-2.28-1.29-1.52-1.93-3.6-1.93-6.23,0-2.79,.71-5.03,2.12-6.72,1.42-1.69,3.29-2.54,5.63-2.54,1.2,0,2.23,.24,3.09,.72,.87,.48,1.56,1.2,2.09,2.16h.06v-9.99h2.42v24.48h-2.42v-2.94h-.06Zm-10.45-5.31c0,2.07,.47,3.68,1.41,4.85,.94,1.17,2.19,1.75,3.74,1.75,1.64,0,2.94-.56,3.91-1.68s1.45-2.52,1.45-4.2v-2.66c0-1.42-.46-2.63-1.39-3.62-.93-1-2.12-1.49-3.58-1.49-1.69,0-3.04,.63-4.04,1.88-1,1.25-1.5,2.98-1.5,5.18Z"/>
        <path class="cls-1" d="M475.43,153.74c-.5,0-.91-.17-1.24-.5-.33-.33-.5-.74-.5-1.23s.17-.91,.5-1.24c.33-.33,.75-.49,1.26-.49s.91,.16,1.25,.49c.34,.33,.51,.74,.51,1.24s-.17,.89-.51,1.23c-.34,.33-.76,.5-1.27,.5Zm1.19,20.65h-2.41v-16.94h2.41v16.94Z"/>
        <path class="cls-1" d="M494.32,173.36c-.8,.52-1.59,.89-2.39,1.11-.8,.22-1.65,.33-2.57,.33-2.37,0-4.3-.76-5.8-2.27-1.5-1.51-2.24-3.59-2.24-6.24s.78-4.99,2.34-6.69,3.65-2.56,6.28-2.56c.81,0,1.58,.1,2.33,.3s1.51,.51,2.29,.93l-1.02,1.81c-.61-.34-1.21-.59-1.8-.74-.59-.15-1.21-.23-1.88-.23-1.92,0-3.4,.65-4.46,1.95-1.06,1.3-1.59,2.96-1.59,4.98,0,2.13,.53,3.78,1.6,4.95s2.45,1.75,4.15,1.75c.6,0,1.21-.08,1.81-.25s1.23-.46,1.87-.86l1.08,1.74Z"/>
        <path class="cls-1" d="M510.29,174.39h-2.41v-2.87h-.08c-.56,1.05-1.3,1.87-2.21,2.43-.92,.57-1.96,.85-3.13,.85-1.6,0-2.89-.46-3.85-1.38-.96-.92-1.44-2.12-1.44-3.59s.48-2.66,1.45-3.6c.97-.94,2.44-1.54,4.41-1.82l4.86-.68v-.44c-.02-1.45-.36-2.52-1.03-3.2-.66-.68-1.58-1.02-2.75-1.02-.92,0-1.79,.17-2.63,.52-.84,.34-1.63,.86-2.37,1.55l-1.39-1.5c.93-.87,1.93-1.52,3-1.95s2.25-.65,3.54-.65c1.99,0,3.5,.54,4.51,1.61,1.02,1.07,1.53,2.66,1.53,4.75v11Zm-2.41-7.07v-1.66l-4.25,.61c-1.41,.19-2.44,.54-3.08,1.05-.65,.51-.97,1.28-.97,2.31,0,.97,.3,1.74,.91,2.31s1.4,.86,2.37,.86c1.49,0,2.69-.51,3.62-1.54,.93-1.03,1.4-2.34,1.4-3.93Z"/>
        <path class="cls-1" d="M515.61,174.39v-24.48h2.42v24.48h-2.42Z"/>
        <path class="cls-1" d="M531.28,172.55l1.24-1.89c.93,.66,1.86,1.14,2.81,1.44,.95,.3,2.02,.45,3.23,.45,1.43,0,2.61-.36,3.54-1.09s1.39-1.75,1.39-3.08c0-1.13-.38-2.05-1.14-2.75-.76-.71-2-1.35-3.72-1.95-2.21-.78-3.82-1.66-4.85-2.65-1.03-.99-1.54-2.29-1.54-3.89,0-1.88,.66-3.4,1.99-4.56s3.08-1.74,5.28-1.74c1,0,1.99,.13,2.96,.38s1.95,.64,2.92,1.17l-1.08,1.97c-.81-.45-1.61-.78-2.41-.99s-1.66-.31-2.58-.31c-1.39,0-2.5,.34-3.33,1.03s-1.25,1.62-1.25,2.82c0,1.04,.38,1.89,1.14,2.54,.76,.65,2.02,1.28,3.77,1.91,2.26,.78,3.88,1.68,4.87,2.71,.98,1.03,1.48,2.39,1.48,4.09,0,1.94-.67,3.53-2,4.77s-3.19,1.87-5.55,1.87c-1.37,0-2.63-.18-3.78-.54-1.15-.36-2.27-.92-3.36-1.69Z"/>
        <path class="cls-1" d="M563.93,174.39h-2.42v-2.81h-.06c-.57,1.08-1.3,1.88-2.19,2.41-.89,.53-1.93,.8-3.12,.8-2.01,0-3.52-.61-4.52-1.82-1-1.22-1.5-3.05-1.5-5.49v-10.03h2.42v9.61c0,1.93,.35,3.36,1.04,4.29,.69,.93,1.76,1.4,3.21,1.4s2.52-.51,3.41-1.54c.88-1.03,1.32-2.38,1.32-4.04v-9.71h2.42v16.94Z"/>
        <path class="cls-1" d="M572.04,171.77h-.06v10.22h-2.42v-24.54h2.42v3.12h.06c.65-1.16,1.48-2.04,2.5-2.64,1.02-.6,2.18-.9,3.49-.9,2.17,0,3.87,.76,5.09,2.27,1.22,1.51,1.82,3.54,1.82,6.1,0,2.82-.69,5.09-2.08,6.81-1.38,1.72-3.25,2.58-5.59,2.58-1.15,0-2.16-.25-3.04-.75-.87-.5-1.6-1.26-2.2-2.27Zm-.08-6.65v2.24c0,1.49,.47,2.75,1.42,3.8,.95,1.05,2.17,1.57,3.68,1.57,1.66,0,2.97-.66,3.95-1.98,.97-1.32,1.46-3.12,1.46-5.4,0-1.95-.45-3.48-1.36-4.6-.9-1.12-2.12-1.68-3.65-1.68-1.69,0-3.03,.58-4.02,1.74-.99,1.16-1.49,2.59-1.49,4.29Z"/>
        <path class="cls-1" d="M589.4,174.39v-24.48h2.42v24.48h-2.42Z"/>
        <path class="cls-1" d="M598.67,153.74c-.5,0-.91-.17-1.24-.5-.33-.33-.5-.74-.5-1.23s.17-.91,.5-1.24c.33-.33,.75-.49,1.26-.49s.91,.16,1.25,.49c.34,.33,.51,.74,.51,1.24s-.17,.89-.51,1.23c-.34,.33-.76,.5-1.27,.5Zm1.19,20.65h-2.41v-16.94h2.41v16.94Z"/>
        <path class="cls-1" d="M619.17,166.38h-12.13c.04,2.1,.57,3.68,1.57,4.75,1.01,1.07,2.39,1.61,4.14,1.61,.78,0,1.56-.12,2.36-.37,.8-.25,1.59-.65,2.39-1.19l1.15,1.7c-.96,.67-1.93,1.15-2.91,1.46s-2.06,.46-3.23,.46c-2.43,0-4.37-.75-5.8-2.24s-2.15-3.67-2.16-6.51c0-2.67,.72-4.84,2.16-6.51,1.44-1.67,3.31-2.5,5.61-2.5,2.17,0,3.86,.73,5.05,2.18,1.2,1.45,1.79,3.46,1.79,6.01v1.16Zm-2.45-1.99c-.03-1.68-.44-2.99-1.23-3.92-.79-.94-1.86-1.4-3.23-1.4s-2.53,.48-3.46,1.43c-.93,.95-1.5,2.25-1.7,3.9h9.62Z"/>
        <path class="cls-1" d="M622,173.15l1.15-1.86c.67,.45,1.35,.81,2.06,1.07,.71,.26,1.48,.39,2.33,.39,1.23,0,2.15-.24,2.78-.73s.94-1.18,.94-2.1c0-.72-.26-1.33-.79-1.82-.53-.49-1.43-.92-2.71-1.28-1.99-.53-3.36-1.19-4.11-2s-1.12-1.8-1.12-2.97c0-1.39,.52-2.54,1.57-3.45,1.04-.91,2.45-1.36,4.23-1.36,.86,0,1.69,.11,2.48,.33s1.59,.59,2.4,1.11l-1.1,1.82c-.69-.43-1.34-.74-1.95-.93-.61-.19-1.24-.28-1.89-.28-1.11,0-1.96,.22-2.56,.67-.6,.45-.9,1.07-.9,1.87s.27,1.37,.82,1.78c.54,.42,1.49,.81,2.83,1.19,1.75,.51,3.05,1.15,3.88,1.95s1.24,1.85,1.24,3.19c0,1.55-.54,2.78-1.62,3.7s-2.57,1.37-4.45,1.37c-1.02,0-1.99-.14-2.92-.42-.92-.28-1.78-.69-2.58-1.23Z"/>
      </g>
      <g>
        <path class="cls-1" d="M0,71.99c5.76-5.3,13.16-6.74,20.23-8.93,.07,.16,.14,.32,.22,.48-1.74,.76-3.45,1.57-5.21,2.28-1.79,.72-3.33,1.81-4.73,3.07-2.18,1.97-2.16,3.9,0,5.96,2.22,2.13,5.07,3.12,7.85,4.14,9.62,3.52,19.67,5.15,29.77,6.43,19.73,2.5,39.57,2.57,59.41,2.16,12.56-.26,25.11-.93,37.63-2,2.47-.21,2.66-.01,1.96,2.38-1.34,4.61-2.8,9.18-3.47,13.95-.22,1.55-1.39,1.71-2.47,2.05-9.94,3.16-19.03,8-27.23,14.39-16.67,12.98-26.45,29.98-29.34,50.96-.61,4.41,.57,5.03-5.24,3.59-16.78-4.15-32.01-11.46-45.21-22.66-10.89-9.23-19.45-20.29-25.1-33.54C4.31,105.56,1.45,94,.39,81.97c-.05-.57-.25-1.12-.39-1.69,0-2.76,0-5.53,0-8.29Z"/>
        <path class="cls-1" d="M91.19,174.52c-1.06-2.06-.28-4.17-.01-6.21,2.17-16.62,9.61-30.38,22.32-41.39,10.11-8.76,21.89-14.1,34.51-18,8.2-2.53,16.24-5.49,23.73-9.79,1.97-1.13,3.81-2.41,5.45-3.96,1.32-1.24,1.95-.7,2.06,.75,.15,1.81-.16,3.61-.87,5.31-1.81,4.35-5.18,7.27-8.99,9.78-4.44,2.93-9.16,5.31-14.76,7.32,1.62,.46,2.63,.24,3.62,0,5.46-1.31,10.74-3.13,15.84-5.48,3.41-1.57,5.59-4.42,7.4-7.48,4.26-7.2,6.88-15.03,8.33-23.26,.47-2.64,1.66-4.98,3.17-7.11,2.62-3.69,4.95-3.96,8.6-1.28v6.98c-.68,3.19-1.32,6.39-2.06,9.57-3.18,13.73-8.85,26.44-16.28,38.36-4.84,7.78-10.17,15.16-17.27,21.2-14.03,11.94-30.16,19.25-48.17,22.61-4.2,.78-8.44,1.39-12.66,2.08h-13.96Z"/>
        <path class="cls-1" d="M25.74,0c3.5,1.13,6.64,2.78,9.25,5.48,3.56,3.69,4.88,7.99,4.09,12.98-.26,1.64-.49,3.37-1.16,4.86-1.07,2.36-.38,3.99,1.17,5.84,11.95,14.23,23.8,28.54,35.69,42.82,2.09,2.51,4.17,5.03,6.26,7.54,.31,.37,.86,.73,.48,1.29-.28,.4-.79,.19-1.22,.15-11.28-.96-22.56-1.93-33.84-2.84-1.36-.11-2.08-.75-2.62-1.91-6.03-12.9-12.11-25.77-18.08-38.69-1.15-2.49-2.52-4.28-5.32-5.2-3.59-1.18-6.8-3.25-9.55-5.94-4.24-4.14-4.93-9.06-3.06-14.44,1.06-3.04,2.85-5.72,4.95-8.16,1.44-1.68,3.51-2.25,5.5-2.94,.89-.31,1.79-.58,2.69-.86h4.8Z"/>
        <path class="cls-1" d="M132.01,36.65c-2.11,2.33-4.24,4.66-6.33,7.01-1.3,1.46-2.53,3-3.84,4.46-.69,.77-1.49,1.03-2.07-.12-1.92-3.79-5.33-6.04-8.6-8.44-1.79-1.31-1.87-1.63,.06-2.87,5.67-3.65,11.17-7.52,17.59-9.93,6.26-2.35,10.78-6.98,14.34-12.57,.38-.6,.6-1.55,1.39-1.54,.97,.01,1.06,1.12,1.32,1.79,4.61,11.94,7.07,24.13,3.62,36.85-2.48,9.16-8.14,16.09-15.64,21.67-2.46,1.83-5.12,3.31-7.89,4.59-.66,.31-1.54,1-2.21,.38-.57-.53,.06-1.38,.27-2.03,1.87-5.66,2.03-11.4,1.07-17.23-.3-1.81-.8-3.56-1.53-5.22-.93-2.13-.36-3.92,.85-5.71,2.5-3.7,5.19-7.27,7.59-11.09Z"/>
        <path class="cls-1" d="M102.68,51.5c2.17,4.44,4.49,8.71,6.26,13.24,2.09,5.36,3.6,10.88,4.68,16.52,.26,1.34,0,2.02-1.53,1.55-10.5-3.17-19.82-8.2-25.58-17.94-3.55-6.02-4.47-12.81-3.89-19.77,.51-6.06,1.88-11.89,4.42-17.42,.25-.55,.27-1.47,1.1-1.42,.65,.04,.65,.87,.92,1.36,1.29,2.33,3.04,4.22,5.17,5.81,3.72,2.79,7.41,5.6,11.76,7.39,8.83,3.64,14.64,9.82,15.98,19.55,.87,6.27-.48,12.28-2.53,18.16-.18,.52-.42,1.27-1.07,1.22-.72-.06-.62-.89-.75-1.42-2.34-9.67-7.29-17.96-13.52-25.56-.4-.49-.95-.85-1.42-1.28Z"/>
        <path class="cls-1" d="M170.5,92.56c.6-12.24,3.85-23.75,9.53-34.59,.4-.77,.95-1.46,1.5-2.14,.71-.89,1.62-1.66,2.79-1.04,1.08,.57,1.32,1.76,1.07,2.87-.3,1.34-.81,2.63-1.27,3.94-2.9,8.35-4.49,16.98-5.48,25.73-.49,4.29-3.37,6.74-6.7,8.85-.82,.52-1.41,.29-1.43-.77-.02-.94,0-1.89,0-2.84Z"/>
        <path class="cls-1" d="M159.62,99.88c.97-11.43,3.64-21.99,8.56-31.94,.42-.84,.94-1.64,1.5-2.39,.67-.9,1.54-1.76,2.74-1.17,1.19,.59,1.44,1.82,1.13,3.02-.43,1.68-1.07,3.31-1.55,4.98-2.12,7.5-3.32,15.15-3.68,22.93-.09,1.97-.52,3.72-2.81,4.36-1.18,.33-2.26,.98-3.39,1.47-2.34,1-2.56,.85-2.5-1.26Z"/>
        <path class="cls-1" d="M160.63,80.74c-.39,7.15-2.17,14.06-3.46,21.06-.27,1.46-1.34,1.8-2.49,2.06-1.45,.32-3.19,1.73-4.26,.68-1.11-1.08-.16-3.03,.2-4.56,1.28-5.44,2.28-10.97,4.61-16.11,.87-1.91,1.98-3.71,3.04-5.53,.4-.68,.96-1.53,1.85-1.2,.85,.31,.76,1.3,.71,2.1-.03,.51-.12,1.01-.19,1.51Z"/>
      </g>
    </g>
  </g>
</svg>