<?xml version="1.0" encoding="UTF-8"?>
<svg id="Layer_2" data-name="Layer 2" xmlns="http://www.w3.org/2000/svg" viewBox="0 0 201.57 174.52">
  <defs>
    <style>
      .cls-1 {
        fill: #119dd9;
      }

      .cls-2 {
        fill: #4d8f41;
      }
    </style>
  </defs>
  <g id="Layer_1-2" data-name="Layer 1">
    <g>
      <path class="cls-1" d="M0,71.99c5.76-5.3,13.16-6.74,20.23-8.93,.07,.16,.14,.32,.22,.48-1.74,.76-3.45,1.57-5.21,2.28-1.79,.72-3.33,1.81-4.73,3.07-2.18,1.97-2.16,3.9,0,5.96,2.22,2.13,5.07,3.12,7.85,4.14,9.62,3.52,19.67,5.15,29.77,6.43,19.73,2.5,39.57,2.57,59.41,2.16,12.56-.26,25.11-.93,37.63-2,2.47-.21,2.66-.01,1.96,2.38-1.34,4.61-2.8,9.18-3.47,13.95-.22,1.55-1.39,1.71-2.47,2.05-9.94,3.16-19.03,8-27.23,14.39-16.67,12.98-26.45,29.98-29.34,50.96-.61,4.41,.57,5.03-5.24,3.59-16.78-4.15-32.01-11.46-45.21-22.66-10.89-9.23-19.45-20.29-25.1-33.54C4.31,105.56,1.45,94,.39,81.97c-.05-.57-.25-1.12-.39-1.69,0-2.76,0-5.53,0-8.29Z"/>
      <path class="cls-2" d="M91.19,174.52c-1.06-2.06-.28-4.17-.01-6.21,2.17-16.62,9.61-30.38,22.32-41.39,10.11-8.76,21.89-14.1,34.51-18,8.2-2.53,16.24-5.49,23.73-9.79,1.97-1.13,3.81-2.41,5.45-3.96,1.32-1.24,1.95-.7,2.06,.75,.15,1.81-.16,3.61-.87,5.31-1.81,4.35-5.18,7.27-8.99,9.78-4.44,2.93-9.16,5.31-14.76,7.32,1.62,.46,2.63,.24,3.62,0,5.46-1.31,10.74-3.13,15.84-5.48,3.41-1.57,5.59-4.42,7.4-7.48,4.26-7.2,6.88-15.03,8.33-23.26,.47-2.64,1.66-4.98,3.17-7.11,2.62-3.69,4.95-3.96,8.6-1.28v6.98c-.68,3.19-1.32,6.39-2.06,9.57-3.18,13.73-8.85,26.44-16.28,38.36-4.84,7.78-10.17,15.16-17.27,21.2-14.03,11.94-30.16,19.25-48.17,22.61-4.2,.78-8.44,1.39-12.66,2.08h-13.96Z"/>
      <path class="cls-1" d="M25.74,0c3.5,1.13,6.64,2.78,9.25,5.48,3.56,3.69,4.88,7.99,4.09,12.98-.26,1.64-.49,3.37-1.16,4.86-1.07,2.36-.38,3.99,1.17,5.84,11.95,14.23,23.8,28.54,35.69,42.82,2.09,2.51,4.17,5.03,6.26,7.54,.31,.37,.86,.73,.48,1.29-.28,.4-.79,.19-1.22,.15-11.28-.96-22.56-1.93-33.84-2.84-1.36-.11-2.08-.75-2.62-1.91-6.03-12.9-12.11-25.77-18.08-38.69-1.15-2.49-2.52-4.28-5.32-5.2-3.59-1.18-6.8-3.25-9.55-5.94-4.24-4.14-4.93-9.06-3.06-14.44,1.06-3.04,2.85-5.72,4.95-8.16,1.44-1.68,3.51-2.25,5.5-2.94,.89-.31,1.79-.58,2.69-.86h4.8Z"/>
      <path class="cls-2" d="M132.01,36.65c-2.11,2.33-4.24,4.66-6.33,7.01-1.3,1.46-2.53,3-3.84,4.46-.69,.77-1.49,1.03-2.07-.12-1.92-3.79-5.33-6.04-8.6-8.44-1.79-1.31-1.87-1.63,.06-2.87,5.67-3.65,11.17-7.52,17.59-9.93,6.26-2.35,10.78-6.98,14.34-12.57,.38-.6,.6-1.55,1.39-1.54,.97,.01,1.06,1.12,1.32,1.79,4.61,11.94,7.07,24.13,3.62,36.85-2.48,9.16-8.14,16.09-15.64,21.67-2.46,1.83-5.12,3.31-7.89,4.59-.66,.31-1.54,1-2.21,.38-.57-.53,.06-1.38,.27-2.03,1.87-5.66,2.03-11.4,1.07-17.23-.3-1.81-.8-3.56-1.53-5.22-.93-2.13-.36-3.92,.85-5.71,2.5-3.7,5.19-7.27,7.59-11.09Z"/>
      <path class="cls-2" d="M102.68,51.5c2.17,4.44,4.49,8.71,6.26,13.24,2.09,5.36,3.6,10.88,4.68,16.52,.26,1.34,0,2.02-1.53,1.55-10.5-3.17-19.82-8.2-25.58-17.94-3.55-6.02-4.47-12.81-3.89-19.77,.51-6.06,1.88-11.89,4.42-17.42,.25-.55,.27-1.47,1.1-1.42,.65,.04,.65,.87,.92,1.36,1.29,2.33,3.04,4.22,5.17,5.81,3.72,2.79,7.41,5.6,11.76,7.39,8.83,3.64,14.64,9.82,15.98,19.55,.87,6.27-.48,12.28-2.53,18.16-.18,.52-.42,1.27-1.07,1.22-.72-.06-.62-.89-.75-1.42-2.34-9.67-7.29-17.96-13.52-25.56-.4-.49-.95-.85-1.42-1.28Z"/>
      <path class="cls-2" d="M170.5,92.56c.6-12.24,3.85-23.75,9.53-34.59,.4-.77,.95-1.46,1.5-2.14,.71-.89,1.62-1.66,2.79-1.04,1.08,.57,1.32,1.76,1.07,2.87-.3,1.34-.81,2.63-1.27,3.94-2.9,8.35-4.49,16.98-5.48,25.73-.49,4.29-3.37,6.74-6.7,8.85-.82,.52-1.41,.29-1.43-.77-.02-.94,0-1.89,0-2.84Z"/>
      <path class="cls-2" d="M159.62,99.88c.97-11.43,3.64-21.99,8.56-31.94,.42-.84,.94-1.64,1.5-2.39,.67-.9,1.54-1.76,2.74-1.17,1.19,.59,1.44,1.82,1.13,3.02-.43,1.68-1.07,3.31-1.55,4.98-2.12,7.5-3.32,15.15-3.68,22.93-.09,1.97-.52,3.72-2.81,4.36-1.18,.33-2.26,.98-3.39,1.47-2.34,1-2.56,.85-2.5-1.26Z"/>
      <path class="cls-2" d="M160.63,80.74c-.39,7.15-2.17,14.06-3.46,21.06-.27,1.46-1.34,1.8-2.49,2.06-1.45,.32-3.19,1.73-4.26,.68-1.11-1.08-.16-3.03,.2-4.56,1.28-5.44,2.28-10.97,4.61-16.11,.87-1.91,1.98-3.71,3.04-5.53,.4-.68,.96-1.53,1.85-1.2,.85,.31,.76,1.3,.71,2.1-.03,.51-.12,1.01-.19,1.51Z"/>
    </g>
  </g>
</svg>